<svg width="1000" height="300" viewBox="0 0 1000 300" fill="none" xmlns="http://www.w3.org/2000/svg">
<rect width="1000" height="300" fill="#DDDDDD"/>
<path d="M483.183 17H481.421C481.317 16.4934 481.135 16.0483 480.874 15.6648C480.619 15.2812 480.306 14.9593 479.937 14.6989C479.572 14.4337 479.168 14.2348 478.722 14.1023C478.277 13.9697 477.813 13.9034 477.33 13.9034C476.45 13.9034 475.652 14.1259 474.937 14.571C474.227 15.0161 473.661 15.6719 473.24 16.5384C472.823 17.4048 472.615 18.4678 472.615 19.7273C472.615 20.9867 472.823 22.0497 473.24 22.9162C473.661 23.7827 474.227 24.4384 474.937 24.8835C475.652 25.3286 476.45 25.5511 477.33 25.5511C477.813 25.5511 478.277 25.4848 478.722 25.3523C479.168 25.2197 479.572 25.0232 479.937 24.7628C480.306 24.4976 480.619 24.1733 480.874 23.7898C481.135 23.4015 481.317 22.9564 481.421 22.4545H483.183C483.05 23.1979 482.809 23.8632 482.458 24.4503C482.108 25.0374 481.672 25.5369 481.151 25.9489C480.631 26.3561 480.046 26.6662 479.397 26.8793C478.753 27.0923 478.064 27.1989 477.33 27.1989C476.09 27.1989 474.987 26.8958 474.021 26.2898C473.055 25.6837 472.295 24.822 471.741 23.7045C471.187 22.5871 470.91 21.2614 470.91 19.7273C470.91 18.1932 471.187 16.8674 471.741 15.75C472.295 14.6326 473.055 13.7708 474.021 13.1648C474.987 12.5587 476.09 12.2557 477.33 12.2557C478.064 12.2557 478.753 12.3622 479.397 12.5753C480.046 12.7884 480.631 13.1009 481.151 13.5128C481.672 13.92 482.108 14.4171 482.458 15.0043C482.809 15.5866 483.05 16.2519 483.183 17ZM487.478 20.4375V27H485.802V12.4545H487.478V17.7955H487.62C487.876 17.232 488.259 16.7846 488.77 16.4531C489.287 16.117 489.973 15.9489 490.83 15.9489C491.573 15.9489 492.224 16.098 492.783 16.3963C493.342 16.6899 493.775 17.142 494.083 17.7528C494.395 18.3589 494.552 19.1307 494.552 20.0682V27H492.876V20.1818C492.876 19.3153 492.651 18.6454 492.201 18.1719C491.756 17.6937 491.138 17.4545 490.347 17.4545C489.798 17.4545 489.305 17.5705 488.87 17.8026C488.439 18.0346 488.098 18.3731 487.847 18.8182C487.601 19.2633 487.478 19.803 487.478 20.4375ZM504.493 22.5398V16.0909H506.169V27H504.493V25.1534H504.379C504.124 25.7074 503.726 26.1785 503.186 26.5668C502.646 26.9503 501.965 27.142 501.141 27.142C500.459 27.142 499.853 26.9929 499.323 26.6946C498.792 26.3916 498.376 25.937 498.073 25.331C497.77 24.7202 497.618 23.9508 497.618 23.0227V16.0909H499.294V22.9091C499.294 23.7045 499.517 24.339 499.962 24.8125C500.412 25.286 500.985 25.5227 501.681 25.5227C502.097 25.5227 502.521 25.4162 502.952 25.2031C503.387 24.9901 503.752 24.6634 504.046 24.223C504.344 23.7827 504.493 23.2216 504.493 22.5398ZM510.915 20.4375V27H509.239V16.0909H510.858V17.7955H511.001C511.256 17.2415 511.644 16.7964 512.165 16.4602C512.686 16.1193 513.358 15.9489 514.182 15.9489C514.921 15.9489 515.567 16.1004 516.121 16.4034C516.675 16.7017 517.106 17.1562 517.414 17.767C517.722 18.3731 517.876 19.1402 517.876 20.0682V27H516.199V20.1818C516.199 19.3248 515.977 18.6572 515.532 18.179C515.087 17.696 514.476 17.4545 513.699 17.4545C513.164 17.4545 512.686 17.5705 512.265 17.8026C511.848 18.0346 511.519 18.3731 511.278 18.8182C511.036 19.2633 510.915 19.803 510.915 20.4375ZM522.501 23.0227L522.472 20.9489H522.813L527.586 16.0909H529.66L524.575 21.233H524.433L522.501 23.0227ZM520.938 27V12.4545H522.615V27H520.938ZM527.87 27L523.609 21.6023L524.802 20.4375L530.001 27H527.87Z" fill="black"/>
<rect x="350" y="40" width="300" height="250" fill="#C4C4C4"/>
<path d="M466.683 52.4545H468.786L473.729 64.5284H473.899L478.842 52.4545H480.945V67H479.297V55.9489H479.155L474.609 67H473.018L468.473 55.9489H468.331V67H466.683V52.4545ZM488.681 67.2273C487.696 67.2273 486.832 66.9929 486.088 66.5241C485.35 66.0554 484.772 65.3996 484.355 64.5568C483.944 63.714 483.738 62.7292 483.738 61.6023C483.738 60.4659 483.944 59.474 484.355 58.6264C484.772 57.7789 485.35 57.1207 486.088 56.652C486.832 56.1832 487.696 55.9489 488.681 55.9489C489.666 55.9489 490.527 56.1832 491.266 56.652C492.009 57.1207 492.587 57.7789 492.999 58.6264C493.416 59.474 493.624 60.4659 493.624 61.6023C493.624 62.7292 493.416 63.714 492.999 64.5568C492.587 65.3996 492.009 66.0554 491.266 66.5241C490.527 66.9929 489.666 67.2273 488.681 67.2273ZM488.681 65.7216C489.429 65.7216 490.044 65.5298 490.527 65.1463C491.01 64.7628 491.368 64.2585 491.6 63.6335C491.832 63.0085 491.948 62.3314 491.948 61.6023C491.948 60.8731 491.832 60.1937 491.6 59.5639C491.368 58.9342 491.01 58.4252 490.527 58.0369C490.044 57.6487 489.429 57.4545 488.681 57.4545C487.933 57.4545 487.317 57.6487 486.834 58.0369C486.351 58.4252 485.994 58.9342 485.762 59.5639C485.53 60.1937 485.414 60.8731 485.414 61.6023C485.414 62.3314 485.53 63.0085 485.762 63.6335C485.994 64.2585 486.351 64.7628 486.834 65.1463C487.317 65.5298 487.933 65.7216 488.681 65.7216ZM500.302 67.2273C499.393 67.2273 498.59 66.9976 497.894 66.5384C497.198 66.0743 496.654 65.4209 496.261 64.5781C495.868 63.7306 495.671 62.7292 495.671 61.5739C495.671 60.428 495.868 59.4337 496.261 58.5909C496.654 57.7481 497.201 57.0971 497.901 56.6378C498.602 56.1785 499.412 55.9489 500.33 55.9489C501.04 55.9489 501.602 56.0672 502.013 56.304C502.43 56.536 502.747 56.8011 502.965 57.0994C503.188 57.393 503.361 57.6345 503.484 57.8239H503.626V52.4545H505.302V67H503.683V65.3239H503.484C503.361 65.5227 503.185 65.7737 502.958 66.0767C502.731 66.375 502.406 66.6425 501.985 66.8793C501.564 67.1113 501.003 67.2273 500.302 67.2273ZM500.529 65.7216C501.201 65.7216 501.77 65.5464 502.234 65.196C502.698 64.8409 503.05 64.3509 503.292 63.7259C503.533 63.0961 503.654 62.3693 503.654 61.5455C503.654 60.7311 503.536 60.0185 503.299 59.4077C503.062 58.7921 502.712 58.3139 502.248 57.973C501.784 57.6274 501.211 57.4545 500.529 57.4545C499.819 57.4545 499.227 57.6368 498.754 58.0014C498.285 58.3613 497.932 58.8513 497.695 59.4716C497.463 60.0871 497.347 60.7784 497.347 61.5455C497.347 62.322 497.466 63.0275 497.702 63.6619C497.944 64.2917 498.299 64.7936 498.768 65.1676C499.241 65.5369 499.828 65.7216 500.529 65.7216ZM515.479 62.5398V56.0909H517.156V67H515.479V65.1534H515.366C515.11 65.7074 514.712 66.1785 514.173 66.5668C513.633 66.9503 512.951 67.142 512.127 67.142C511.445 67.142 510.839 66.9929 510.309 66.6946C509.779 66.3916 509.362 65.937 509.059 65.331C508.756 64.7202 508.604 63.9508 508.604 63.0227V56.0909H510.281V62.9091C510.281 63.7045 510.503 64.339 510.948 64.8125C511.398 65.286 511.971 65.5227 512.667 65.5227C513.084 65.5227 513.507 65.4162 513.938 65.2031C514.374 64.9901 514.738 64.6634 515.032 64.223C515.33 63.7827 515.479 63.2216 515.479 62.5398ZM521.902 52.4545V67H520.225V52.4545H521.902ZM529.545 67.2273C528.494 67.2273 527.588 66.9953 526.825 66.5312C526.068 66.0625 525.483 65.4091 525.071 64.571C524.664 63.7282 524.46 62.7481 524.46 61.6307C524.46 60.5133 524.664 59.5284 525.071 58.6761C525.483 57.8191 526.056 57.1515 526.79 56.6733C527.528 56.1903 528.39 55.9489 529.375 55.9489C529.943 55.9489 530.504 56.0436 531.058 56.233C531.612 56.4223 532.116 56.7301 532.571 57.1562C533.026 57.5777 533.388 58.1364 533.658 58.8324C533.928 59.5284 534.062 60.3854 534.062 61.4034V62.1136H525.653V60.6648H532.358C532.358 60.0492 532.235 59.5 531.989 59.017C531.747 58.5341 531.402 58.1529 530.952 57.8736C530.507 57.5942 529.981 57.4545 529.375 57.4545C528.707 57.4545 528.13 57.6203 527.642 57.9517C527.159 58.2784 526.787 58.7045 526.527 59.2301C526.267 59.7557 526.136 60.3191 526.136 60.9205V61.8864C526.136 62.7102 526.278 63.4086 526.562 63.9815C526.851 64.5497 527.251 64.983 527.763 65.2812C528.274 65.5748 528.868 65.7216 529.545 65.7216C529.986 65.7216 530.384 65.66 530.739 65.5369C531.098 65.4091 531.409 65.2197 531.669 64.9688C531.929 64.7131 532.131 64.3958 532.273 64.017L533.892 64.4716C533.722 65.0208 533.435 65.5038 533.033 65.9205C532.63 66.3324 532.133 66.6544 531.541 66.8864C530.949 67.1136 530.284 67.2273 529.545 67.2273Z" fill="black"/>
<rect x="455" y="95" width="90" height="173" fill="#DDDDDD"/>
<rect x="360" y="95" width="90" height="173" fill="#DDDDDD"/>
<rect x="550" y="95" width="90" height="173" fill="#DDDDDD"/>
<path d="M375.151 188.227C374.1 188.227 373.193 187.995 372.431 187.531C371.673 187.062 371.088 186.409 370.676 185.571C370.269 184.728 370.066 183.748 370.066 182.631C370.066 181.513 370.269 180.528 370.676 179.676C371.088 178.819 371.661 178.152 372.395 177.673C373.134 177.19 373.996 176.949 374.98 176.949C375.549 176.949 376.11 177.044 376.664 177.233C377.218 177.422 377.722 177.73 378.176 178.156C378.631 178.578 378.993 179.136 379.263 179.832C379.533 180.528 379.668 181.385 379.668 182.403V183.114H371.259V181.665H377.963C377.963 181.049 377.84 180.5 377.594 180.017C377.353 179.534 377.007 179.153 376.557 178.874C376.112 178.594 375.587 178.455 374.98 178.455C374.313 178.455 373.735 178.62 373.248 178.952C372.765 179.278 372.393 179.705 372.132 180.23C371.872 180.756 371.742 181.319 371.742 181.92V182.886C371.742 183.71 371.884 184.409 372.168 184.982C372.457 185.55 372.857 185.983 373.368 186.281C373.88 186.575 374.474 186.722 375.151 186.722C375.591 186.722 375.989 186.66 376.344 186.537C376.704 186.409 377.014 186.22 377.275 185.969C377.535 185.713 377.736 185.396 377.878 185.017L379.498 185.472C379.327 186.021 379.041 186.504 378.638 186.92C378.236 187.332 377.739 187.654 377.147 187.886C376.555 188.114 375.89 188.227 375.151 188.227ZM383.175 177.091L385.788 181.551L388.402 177.091H390.334L386.811 182.545L390.334 188H388.402L385.788 183.767L383.175 188H381.243L384.709 182.545L381.243 177.091H383.175ZM392.725 192.091V177.091H394.345V178.824H394.544C394.667 178.634 394.837 178.393 395.055 178.099C395.278 177.801 395.595 177.536 396.007 177.304C396.423 177.067 396.987 176.949 397.697 176.949C398.616 176.949 399.425 177.179 400.126 177.638C400.827 178.097 401.374 178.748 401.767 179.591C402.16 180.434 402.356 181.428 402.356 182.574C402.356 183.729 402.16 184.731 401.767 185.578C401.374 186.421 400.829 187.074 400.133 187.538C399.437 187.998 398.635 188.227 397.725 188.227C397.025 188.227 396.464 188.111 396.042 187.879C395.621 187.643 395.297 187.375 395.069 187.077C394.842 186.774 394.667 186.523 394.544 186.324H394.402V192.091H392.725ZM394.373 182.545C394.373 183.369 394.494 184.096 394.735 184.726C394.977 185.351 395.33 185.841 395.794 186.196C396.258 186.546 396.826 186.722 397.498 186.722C398.199 186.722 398.784 186.537 399.252 186.168C399.726 185.794 400.081 185.292 400.318 184.662C400.559 184.027 400.68 183.322 400.68 182.545C400.68 181.778 400.562 181.087 400.325 180.472C400.093 179.851 399.74 179.361 399.267 179.001C398.798 178.637 398.208 178.455 397.498 178.455C396.816 178.455 396.243 178.627 395.779 178.973C395.315 179.314 394.965 179.792 394.728 180.408C394.492 181.018 394.373 181.731 394.373 182.545ZM409.345 188.227C408.36 188.227 407.496 187.993 406.752 187.524C406.014 187.055 405.436 186.4 405.02 185.557C404.608 184.714 404.402 183.729 404.402 182.602C404.402 181.466 404.608 180.474 405.02 179.626C405.436 178.779 406.014 178.121 406.752 177.652C407.496 177.183 408.36 176.949 409.345 176.949C410.33 176.949 411.191 177.183 411.93 177.652C412.673 178.121 413.251 178.779 413.663 179.626C414.08 180.474 414.288 181.466 414.288 182.602C414.288 183.729 414.08 184.714 413.663 185.557C413.251 186.4 412.673 187.055 411.93 187.524C411.191 187.993 410.33 188.227 409.345 188.227ZM409.345 186.722C410.093 186.722 410.708 186.53 411.191 186.146C411.674 185.763 412.032 185.259 412.264 184.634C412.496 184.009 412.612 183.331 412.612 182.602C412.612 181.873 412.496 181.194 412.264 180.564C412.032 179.934 411.674 179.425 411.191 179.037C410.708 178.649 410.093 178.455 409.345 178.455C408.597 178.455 407.981 178.649 407.498 179.037C407.015 179.425 406.658 179.934 406.426 180.564C406.194 181.194 406.078 181.873 406.078 182.602C406.078 183.331 406.194 184.009 406.426 184.634C406.658 185.259 407.015 185.763 407.498 186.146C407.981 186.53 408.597 186.722 409.345 186.722ZM416.847 188V177.091H418.466V178.739H418.58C418.778 178.199 419.138 177.761 419.659 177.425C420.18 177.089 420.767 176.92 421.42 176.92C421.544 176.92 421.697 176.923 421.882 176.928C422.067 176.932 422.206 176.939 422.301 176.949V178.653C422.244 178.639 422.114 178.618 421.911 178.589C421.712 178.556 421.501 178.54 421.278 178.54C420.748 178.54 420.275 178.651 419.858 178.874C419.446 179.091 419.119 179.394 418.878 179.783C418.641 180.166 418.523 180.604 418.523 181.097V188H416.847ZM429.716 177.091V178.511H424.062V177.091H429.716ZM425.71 174.477H427.386V184.875C427.386 185.348 427.455 185.704 427.592 185.94C427.734 186.172 427.914 186.329 428.132 186.409C428.355 186.485 428.589 186.523 428.835 186.523C429.02 186.523 429.171 186.513 429.29 186.494C429.408 186.471 429.503 186.452 429.574 186.438L429.915 187.943C429.801 187.986 429.643 188.028 429.439 188.071C429.235 188.118 428.977 188.142 428.665 188.142C428.191 188.142 427.727 188.04 427.273 187.837C426.823 187.633 426.449 187.323 426.151 186.906C425.857 186.49 425.71 185.964 425.71 185.33V174.477ZM439.769 179.534L438.263 179.96C438.169 179.709 438.029 179.465 437.844 179.229C437.665 178.987 437.418 178.788 437.106 178.632C436.793 178.476 436.393 178.398 435.906 178.398C435.238 178.398 434.682 178.552 434.237 178.859C433.796 179.162 433.576 179.548 433.576 180.017C433.576 180.434 433.728 180.763 434.031 181.004C434.334 181.246 434.807 181.447 435.451 181.608L437.07 182.006C438.046 182.242 438.772 182.605 439.251 183.092C439.729 183.575 439.968 184.198 439.968 184.96C439.968 185.585 439.788 186.144 439.428 186.636C439.073 187.129 438.576 187.517 437.937 187.801C437.298 188.085 436.554 188.227 435.707 188.227C434.594 188.227 433.673 187.986 432.944 187.503C432.215 187.02 431.753 186.314 431.559 185.386L433.15 184.989C433.301 185.576 433.588 186.016 434.009 186.31C434.435 186.603 434.992 186.75 435.678 186.75C436.46 186.75 437.08 186.584 437.539 186.253C438.003 185.917 438.235 185.514 438.235 185.045C438.235 184.667 438.103 184.349 437.837 184.094C437.572 183.833 437.165 183.639 436.616 183.511L434.798 183.085C433.799 182.848 433.065 182.482 432.596 181.984C432.132 181.482 431.9 180.855 431.9 180.102C431.9 179.487 432.073 178.942 432.418 178.469C432.769 177.995 433.245 177.624 433.846 177.354C434.452 177.084 435.138 176.949 435.906 176.949C436.985 176.949 437.833 177.186 438.448 177.659C439.068 178.133 439.509 178.758 439.769 179.534Z" fill="black"/>
<path d="M492.95 188V177.091H494.626V188H492.95ZM493.802 175.273C493.476 175.273 493.194 175.161 492.957 174.939C492.725 174.716 492.609 174.449 492.609 174.136C492.609 173.824 492.725 173.556 492.957 173.334C493.194 173.111 493.476 173 493.802 173C494.129 173 494.408 173.111 494.64 173.334C494.877 173.556 494.996 173.824 494.996 174.136C494.996 174.449 494.877 174.716 494.64 174.939C494.408 175.161 494.129 175.273 493.802 175.273ZM501.816 188.227C500.906 188.227 500.104 187.998 499.408 187.538C498.712 187.074 498.167 186.421 497.774 185.578C497.381 184.731 497.185 183.729 497.185 182.574C497.185 181.428 497.381 180.434 497.774 179.591C498.167 178.748 498.714 178.097 499.415 177.638C500.116 177.179 500.925 176.949 501.844 176.949C502.554 176.949 503.115 177.067 503.527 177.304C503.944 177.536 504.261 177.801 504.479 178.099C504.701 178.393 504.874 178.634 504.997 178.824H505.139V173.455H506.816V188H505.196V186.324H504.997C504.874 186.523 504.699 186.774 504.472 187.077C504.244 187.375 503.92 187.643 503.499 187.879C503.077 188.111 502.516 188.227 501.816 188.227ZM502.043 186.722C502.715 186.722 503.283 186.546 503.747 186.196C504.211 185.841 504.564 185.351 504.806 184.726C505.047 184.096 505.168 183.369 505.168 182.545C505.168 181.731 505.049 181.018 504.813 180.408C504.576 179.792 504.226 179.314 503.762 178.973C503.298 178.627 502.725 178.455 502.043 178.455C501.333 178.455 500.741 178.637 500.267 179.001C499.798 179.361 499.446 179.851 499.209 180.472C498.977 181.087 498.861 181.778 498.861 182.545C498.861 183.322 498.979 184.027 499.216 184.662C499.458 185.292 499.813 185.794 500.281 186.168C500.755 186.537 501.342 186.722 502.043 186.722Z" fill="black"/>
<path d="M565.493 173.455V188H563.817V173.455H565.493ZM572.995 188.227C572.01 188.227 571.146 187.993 570.403 187.524C569.664 187.055 569.087 186.4 568.67 185.557C568.258 184.714 568.052 183.729 568.052 182.602C568.052 181.466 568.258 180.474 568.67 179.626C569.087 178.779 569.664 178.121 570.403 177.652C571.146 177.183 572.01 176.949 572.995 176.949C573.98 176.949 574.842 177.183 575.58 177.652C576.324 178.121 576.901 178.779 577.313 179.626C577.73 180.474 577.938 181.466 577.938 182.602C577.938 183.729 577.73 184.714 577.313 185.557C576.901 186.4 576.324 187.055 575.58 187.524C574.842 187.993 573.98 188.227 572.995 188.227ZM572.995 186.722C573.743 186.722 574.359 186.53 574.842 186.146C575.325 185.763 575.682 185.259 575.914 184.634C576.146 184.009 576.262 183.331 576.262 182.602C576.262 181.873 576.146 181.194 575.914 180.564C575.682 179.934 575.325 179.425 574.842 179.037C574.359 178.649 573.743 178.455 572.995 178.455C572.247 178.455 571.632 178.649 571.149 179.037C570.666 179.425 570.308 179.934 570.076 180.564C569.844 181.194 569.728 181.873 569.728 182.602C569.728 183.331 569.844 184.009 570.076 184.634C570.308 185.259 570.666 185.763 571.149 186.146C571.632 186.53 572.247 186.722 572.995 186.722ZM583.707 188.256C583.016 188.256 582.389 188.125 581.825 187.865C581.262 187.6 580.814 187.219 580.483 186.722C580.151 186.22 579.986 185.614 579.986 184.903C579.986 184.278 580.109 183.772 580.355 183.384C580.601 182.991 580.93 182.683 581.342 182.46C581.754 182.238 582.209 182.072 582.706 181.963C583.208 181.849 583.712 181.759 584.219 181.693C584.881 181.608 585.419 181.544 585.831 181.501C586.247 181.454 586.55 181.376 586.74 181.267C586.934 181.158 587.031 180.969 587.031 180.699V180.642C587.031 179.941 586.839 179.397 586.456 179.009C586.077 178.62 585.502 178.426 584.73 178.426C583.93 178.426 583.302 178.601 582.848 178.952C582.393 179.302 582.074 179.676 581.889 180.074L580.298 179.506C580.582 178.843 580.961 178.327 581.434 177.957C581.913 177.583 582.434 177.323 582.997 177.176C583.565 177.025 584.124 176.949 584.673 176.949C585.023 176.949 585.426 176.991 585.881 177.077C586.34 177.157 586.782 177.325 587.209 177.581C587.64 177.837 587.997 178.223 588.281 178.739C588.565 179.255 588.707 179.946 588.707 180.812V188H587.031V186.523H586.946C586.832 186.759 586.643 187.013 586.378 187.283C586.113 187.553 585.76 187.782 585.319 187.972C584.879 188.161 584.342 188.256 583.707 188.256ZM583.963 186.75C584.626 186.75 585.184 186.62 585.639 186.359C586.098 186.099 586.444 185.763 586.676 185.351C586.913 184.939 587.031 184.506 587.031 184.051V182.517C586.96 182.602 586.804 182.68 586.562 182.751C586.326 182.818 586.051 182.877 585.738 182.929C585.431 182.976 585.13 183.019 584.836 183.057C584.548 183.09 584.313 183.118 584.133 183.142C583.698 183.199 583.291 183.291 582.912 183.419C582.538 183.542 582.235 183.729 582.003 183.98C581.775 184.226 581.662 184.562 581.662 184.989C581.662 185.571 581.877 186.011 582.308 186.31C582.744 186.603 583.295 186.75 583.963 186.75ZM595.886 188.227C594.977 188.227 594.174 187.998 593.478 187.538C592.782 187.074 592.238 186.421 591.845 185.578C591.452 184.731 591.255 183.729 591.255 182.574C591.255 181.428 591.452 180.434 591.845 179.591C592.238 178.748 592.785 178.097 593.485 177.638C594.186 177.179 594.996 176.949 595.914 176.949C596.624 176.949 597.186 177.067 597.597 177.304C598.014 177.536 598.331 177.801 598.549 178.099C598.772 178.393 598.945 178.634 599.068 178.824H599.21V173.455H600.886V188H599.267V186.324H599.068C598.945 186.523 598.769 186.774 598.542 187.077C598.315 187.375 597.99 187.643 597.569 187.879C597.148 188.111 596.587 188.227 595.886 188.227ZM596.113 186.722C596.785 186.722 597.354 186.546 597.818 186.196C598.282 185.841 598.634 185.351 598.876 184.726C599.117 184.096 599.238 183.369 599.238 182.545C599.238 181.731 599.12 181.018 598.883 180.408C598.646 179.792 598.296 179.314 597.832 178.973C597.368 178.627 596.795 178.455 596.113 178.455C595.403 178.455 594.811 178.637 594.338 179.001C593.869 179.361 593.516 179.851 593.279 180.472C593.047 181.087 592.931 181.778 592.931 182.545C592.931 183.322 593.05 184.027 593.286 184.662C593.528 185.292 593.883 185.794 594.352 186.168C594.825 186.537 595.412 186.722 596.113 186.722ZM608.762 188.227C607.711 188.227 606.804 187.995 606.042 187.531C605.285 187.062 604.7 186.409 604.288 185.571C603.881 184.728 603.677 183.748 603.677 182.631C603.677 181.513 603.881 180.528 604.288 179.676C604.7 178.819 605.273 178.152 606.007 177.673C606.745 177.19 607.607 176.949 608.592 176.949C609.16 176.949 609.721 177.044 610.275 177.233C610.829 177.422 611.333 177.73 611.788 178.156C612.242 178.578 612.605 179.136 612.874 179.832C613.144 180.528 613.279 181.385 613.279 182.403V183.114H604.87V181.665H611.575C611.575 181.049 611.452 180.5 611.205 180.017C610.964 179.534 610.618 179.153 610.169 178.874C609.723 178.594 609.198 178.455 608.592 178.455C607.924 178.455 607.347 178.62 606.859 178.952C606.376 179.278 606.004 179.705 605.744 180.23C605.483 180.756 605.353 181.319 605.353 181.92V182.886C605.353 183.71 605.495 184.409 605.779 184.982C606.068 185.55 606.468 185.983 606.98 186.281C607.491 186.575 608.085 186.722 608.762 186.722C609.203 186.722 609.6 186.66 609.955 186.537C610.315 186.409 610.625 186.22 610.886 185.969C611.146 185.713 611.347 185.396 611.49 185.017L613.109 185.472C612.938 186.021 612.652 186.504 612.249 186.92C611.847 187.332 611.35 187.654 610.758 187.886C610.166 188.114 609.501 188.227 608.762 188.227ZM619.948 188.227C619.039 188.227 618.237 187.998 617.541 187.538C616.845 187.074 616.3 186.421 615.907 185.578C615.514 184.731 615.318 183.729 615.318 182.574C615.318 181.428 615.514 180.434 615.907 179.591C616.3 178.748 616.847 178.097 617.548 177.638C618.249 177.179 619.058 176.949 619.977 176.949C620.687 176.949 621.248 177.067 621.66 177.304C622.077 177.536 622.394 177.801 622.612 178.099C622.834 178.393 623.007 178.634 623.13 178.824H623.272V173.455H624.948V188H623.329V186.324H623.13C623.007 186.523 622.832 186.774 622.605 187.077C622.377 187.375 622.053 187.643 621.632 187.879C621.21 188.111 620.649 188.227 619.948 188.227ZM620.176 186.722C620.848 186.722 621.416 186.546 621.88 186.196C622.344 185.841 622.697 185.351 622.938 184.726C623.18 184.096 623.301 183.369 623.301 182.545C623.301 181.731 623.182 181.018 622.945 180.408C622.709 179.792 622.358 179.314 621.894 178.973C621.43 178.627 620.857 178.455 620.176 178.455C619.465 178.455 618.874 178.637 618.4 179.001C617.931 179.361 617.579 179.851 617.342 180.472C617.11 181.087 616.994 181.778 616.994 182.545C616.994 183.322 617.112 184.027 617.349 184.662C617.59 185.292 617.945 185.794 618.414 186.168C618.888 186.537 619.475 186.722 620.176 186.722Z" fill="black"/>
<rect x="21" y="40" width="300" height="250" fill="#C4C4C4"/>
<path d="M137.683 52.4545H139.786L144.729 64.5284H144.899L149.842 52.4545H151.945V67H150.297V55.9489H150.155L145.609 67H144.018L139.473 55.9489H139.331V67H137.683V52.4545ZM159.681 67.2273C158.696 67.2273 157.832 66.9929 157.088 66.5241C156.35 66.0554 155.772 65.3996 155.355 64.5568C154.944 63.714 154.738 62.7292 154.738 61.6023C154.738 60.4659 154.944 59.474 155.355 58.6264C155.772 57.7789 156.35 57.1207 157.088 56.652C157.832 56.1832 158.696 55.9489 159.681 55.9489C160.666 55.9489 161.527 56.1832 162.266 56.652C163.009 57.1207 163.587 57.7789 163.999 58.6264C164.416 59.474 164.624 60.4659 164.624 61.6023C164.624 62.7292 164.416 63.714 163.999 64.5568C163.587 65.3996 163.009 66.0554 162.266 66.5241C161.527 66.9929 160.666 67.2273 159.681 67.2273ZM159.681 65.7216C160.429 65.7216 161.044 65.5298 161.527 65.1463C162.01 64.7628 162.368 64.2585 162.6 63.6335C162.832 63.0085 162.948 62.3314 162.948 61.6023C162.948 60.8731 162.832 60.1937 162.6 59.5639C162.368 58.9342 162.01 58.4252 161.527 58.0369C161.044 57.6487 160.429 57.4545 159.681 57.4545C158.933 57.4545 158.317 57.6487 157.834 58.0369C157.351 58.4252 156.994 58.9342 156.762 59.5639C156.53 60.1937 156.414 60.8731 156.414 61.6023C156.414 62.3314 156.53 63.0085 156.762 63.6335C156.994 64.2585 157.351 64.7628 157.834 65.1463C158.317 65.5298 158.933 65.7216 159.681 65.7216ZM171.302 67.2273C170.393 67.2273 169.59 66.9976 168.894 66.5384C168.198 66.0743 167.654 65.4209 167.261 64.5781C166.868 63.7306 166.671 62.7292 166.671 61.5739C166.671 60.428 166.868 59.4337 167.261 58.5909C167.654 57.7481 168.201 57.0971 168.901 56.6378C169.602 56.1785 170.412 55.9489 171.33 55.9489C172.04 55.9489 172.602 56.0672 173.013 56.304C173.43 56.536 173.747 56.8011 173.965 57.0994C174.188 57.393 174.361 57.6345 174.484 57.8239H174.626V52.4545H176.302V67H174.683V65.3239H174.484C174.361 65.5227 174.185 65.7737 173.958 66.0767C173.731 66.375 173.406 66.6425 172.985 66.8793C172.564 67.1113 172.003 67.2273 171.302 67.2273ZM171.529 65.7216C172.201 65.7216 172.77 65.5464 173.234 65.196C173.698 64.8409 174.05 64.3509 174.292 63.7259C174.533 63.0961 174.654 62.3693 174.654 61.5455C174.654 60.7311 174.536 60.0185 174.299 59.4077C174.062 58.7921 173.712 58.3139 173.248 57.973C172.784 57.6274 172.211 57.4545 171.529 57.4545C170.819 57.4545 170.227 57.6368 169.754 58.0014C169.285 58.3613 168.932 58.8513 168.695 59.4716C168.463 60.0871 168.347 60.7784 168.347 61.5455C168.347 62.322 168.466 63.0275 168.702 63.6619C168.944 64.2917 169.299 64.7936 169.768 65.1676C170.241 65.5369 170.828 65.7216 171.529 65.7216ZM186.479 62.5398V56.0909H188.156V67H186.479V65.1534H186.366C186.11 65.7074 185.712 66.1785 185.173 66.5668C184.633 66.9503 183.951 67.142 183.127 67.142C182.445 67.142 181.839 66.9929 181.309 66.6946C180.779 66.3916 180.362 65.937 180.059 65.331C179.756 64.7202 179.604 63.9508 179.604 63.0227V56.0909H181.281V62.9091C181.281 63.7045 181.503 64.339 181.948 64.8125C182.398 65.286 182.971 65.5227 183.667 65.5227C184.084 65.5227 184.507 65.4162 184.938 65.2031C185.374 64.9901 185.738 64.6634 186.032 64.223C186.33 63.7827 186.479 63.2216 186.479 62.5398ZM192.902 52.4545V67H191.225V52.4545H192.902ZM200.545 67.2273C199.494 67.2273 198.588 66.9953 197.825 66.5312C197.068 66.0625 196.483 65.4091 196.071 64.571C195.664 63.7282 195.46 62.7481 195.46 61.6307C195.46 60.5133 195.664 59.5284 196.071 58.6761C196.483 57.8191 197.056 57.1515 197.79 56.6733C198.528 56.1903 199.39 55.9489 200.375 55.9489C200.943 55.9489 201.504 56.0436 202.058 56.233C202.612 56.4223 203.116 56.7301 203.571 57.1562C204.026 57.5777 204.388 58.1364 204.658 58.8324C204.928 59.5284 205.062 60.3854 205.062 61.4034V62.1136H196.653V60.6648H203.358C203.358 60.0492 203.235 59.5 202.989 59.017C202.747 58.5341 202.402 58.1529 201.952 57.8736C201.507 57.5942 200.981 57.4545 200.375 57.4545C199.707 57.4545 199.13 57.6203 198.642 57.9517C198.159 58.2784 197.787 58.7045 197.527 59.2301C197.267 59.7557 197.136 60.3191 197.136 60.9205V61.8864C197.136 62.7102 197.278 63.4086 197.562 63.9815C197.851 64.5497 198.251 64.983 198.763 65.2812C199.274 65.5748 199.868 65.7216 200.545 65.7216C200.986 65.7216 201.384 65.66 201.739 65.5369C202.098 65.4091 202.409 65.2197 202.669 64.9688C202.929 64.7131 203.131 64.3958 203.273 64.017L204.892 64.4716C204.722 65.0208 204.435 65.5038 204.033 65.9205C203.63 66.3324 203.133 66.6544 202.541 66.8864C201.949 67.1136 201.284 67.2273 200.545 67.2273Z" fill="black"/>
<rect x="126" y="95" width="90" height="173" fill="#DDDDDD"/>
<rect x="31" y="95" width="90" height="173" fill="#DDDDDD"/>
<rect x="221" y="95" width="90" height="173" fill="#DDDDDD"/>
<path d="M46.1509 188.227C45.0998 188.227 44.1931 187.995 43.4308 187.531C42.6732 187.062 42.0884 186.409 41.6765 185.571C41.2693 184.728 41.0657 183.748 41.0657 182.631C41.0657 181.513 41.2693 180.528 41.6765 179.676C42.0884 178.819 42.6613 178.152 43.3952 177.673C44.1339 177.19 44.9956 176.949 45.9805 176.949C46.5487 176.949 47.1097 177.044 47.6637 177.233C48.2177 177.422 48.7219 177.73 49.1765 178.156C49.631 178.578 49.9933 179.136 50.2631 179.832C50.533 180.528 50.668 181.385 50.668 182.403V183.114H42.2589V181.665H48.9634C48.9634 181.049 48.8403 180.5 48.5941 180.017C48.3526 179.534 48.007 179.153 47.5572 178.874C47.1121 178.594 46.5865 178.455 45.9805 178.455C45.3129 178.455 44.7352 178.62 44.2475 178.952C43.7646 179.278 43.3929 179.705 43.1325 180.23C42.872 180.756 42.7418 181.319 42.7418 181.92V182.886C42.7418 183.71 42.8839 184.409 43.168 184.982C43.4568 185.55 43.8569 185.983 44.3683 186.281C44.8796 186.575 45.4738 186.722 46.1509 186.722C46.5913 186.722 46.989 186.66 47.3441 186.537C47.704 186.409 48.0141 186.22 48.2745 185.969C48.5349 185.713 48.7362 185.396 48.8782 185.017L50.4975 185.472C50.3271 186.021 50.0406 186.504 49.6381 186.92C49.2357 187.332 48.7385 187.654 48.1467 187.886C47.5548 188.114 46.8896 188.227 46.1509 188.227ZM54.1747 177.091L56.7884 181.551L59.402 177.091H61.3338L57.8111 182.545L61.3338 188H59.402L56.7884 183.767L54.1747 188H52.2429L55.7088 182.545L52.2429 177.091H54.1747ZM63.7255 192.091V177.091H65.3448V178.824H65.5437C65.6668 178.634 65.8372 178.393 66.055 178.099C66.2776 177.801 66.5948 177.536 67.0067 177.304C67.4234 177.067 67.9869 176.949 68.6971 176.949C69.6156 176.949 70.4253 177.179 71.1261 177.638C71.8268 178.097 72.3737 178.748 72.7667 179.591C73.1597 180.434 73.3562 181.428 73.3562 182.574C73.3562 183.729 73.1597 184.731 72.7667 185.578C72.3737 186.421 71.8292 187.074 71.1332 187.538C70.4371 187.998 69.6346 188.227 68.7255 188.227C68.0247 188.227 67.4637 188.111 67.0423 187.879C66.6209 187.643 66.2965 187.375 66.0692 187.077C65.842 186.774 65.6668 186.523 65.5437 186.324H65.4016V192.091H63.7255ZM65.3732 182.545C65.3732 183.369 65.494 184.096 65.7354 184.726C65.9769 185.351 66.3297 185.841 66.7937 186.196C67.2577 186.546 67.8259 186.722 68.4982 186.722C69.199 186.722 69.7837 186.537 70.2525 186.168C70.726 185.794 71.0811 185.292 71.3178 184.662C71.5593 184.027 71.68 183.322 71.68 182.545C71.68 181.778 71.5617 181.087 71.3249 180.472C71.0929 179.851 70.7402 179.361 70.2667 179.001C69.7979 178.637 69.2085 178.455 68.4982 178.455C67.8164 178.455 67.2435 178.627 66.7795 178.973C66.3155 179.314 65.9651 179.792 65.7283 180.408C65.4916 181.018 65.3732 181.731 65.3732 182.545ZM80.3448 188.227C79.36 188.227 78.4959 187.993 77.7525 187.524C77.0138 187.055 76.4362 186.4 76.0195 185.557C75.6076 184.714 75.4016 183.729 75.4016 182.602C75.4016 181.466 75.6076 180.474 76.0195 179.626C76.4362 178.779 77.0138 178.121 77.7525 177.652C78.4959 177.183 79.36 176.949 80.3448 176.949C81.3297 176.949 82.1914 177.183 82.93 177.652C83.6734 178.121 84.2511 178.779 84.663 179.626C85.0797 180.474 85.288 181.466 85.288 182.602C85.288 183.729 85.0797 184.714 84.663 185.557C84.2511 186.4 83.6734 187.055 82.93 187.524C82.1914 187.993 81.3297 188.227 80.3448 188.227ZM80.3448 186.722C81.0929 186.722 81.7085 186.53 82.1914 186.146C82.6744 185.763 83.0318 185.259 83.2638 184.634C83.4959 184.009 83.6119 183.331 83.6119 182.602C83.6119 181.873 83.4959 181.194 83.2638 180.564C83.0318 179.934 82.6744 179.425 82.1914 179.037C81.7085 178.649 81.0929 178.455 80.3448 178.455C79.5967 178.455 78.9812 178.649 78.4982 179.037C78.0153 179.425 77.6578 179.934 77.4258 180.564C77.1938 181.194 77.0778 181.873 77.0778 182.602C77.0778 183.331 77.1938 184.009 77.4258 184.634C77.6578 185.259 78.0153 185.763 78.4982 186.146C78.9812 186.53 79.5967 186.722 80.3448 186.722ZM87.8466 188V177.091H89.4659V178.739H89.5795C89.7784 178.199 90.1383 177.761 90.6591 177.425C91.1799 177.089 91.767 176.92 92.4205 176.92C92.5436 176.92 92.6974 176.923 92.8821 176.928C93.0668 176.932 93.2064 176.939 93.3011 176.949V178.653C93.2443 178.639 93.1141 178.618 92.9105 178.589C92.7116 178.556 92.5009 178.54 92.2784 178.54C91.7481 178.54 91.2746 178.651 90.858 178.874C90.446 179.091 90.1193 179.394 89.8778 179.783C89.6411 180.166 89.5227 180.604 89.5227 181.097V188H87.8466ZM100.716 177.091V178.511H95.0625V177.091H100.716ZM96.7102 174.477H98.3864V184.875C98.3864 185.348 98.455 185.704 98.5923 185.94C98.7344 186.172 98.9143 186.329 99.1321 186.409C99.3546 186.485 99.589 186.523 99.8352 186.523C100.02 186.523 100.171 186.513 100.29 186.494C100.408 186.471 100.503 186.452 100.574 186.438L100.915 187.943C100.801 187.986 100.643 188.028 100.439 188.071C100.235 188.118 99.9773 188.142 99.6648 188.142C99.1913 188.142 98.7273 188.04 98.2727 187.837C97.8229 187.633 97.4489 187.323 97.1506 186.906C96.857 186.49 96.7102 185.964 96.7102 185.33V174.477ZM110.769 179.534L109.263 179.96C109.169 179.709 109.029 179.465 108.844 179.229C108.665 178.987 108.418 178.788 108.106 178.632C107.793 178.476 107.393 178.398 106.906 178.398C106.238 178.398 105.682 178.552 105.237 178.859C104.796 179.162 104.576 179.548 104.576 180.017C104.576 180.434 104.728 180.763 105.031 181.004C105.334 181.246 105.807 181.447 106.451 181.608L108.07 182.006C109.046 182.242 109.772 182.605 110.251 183.092C110.729 183.575 110.968 184.198 110.968 184.96C110.968 185.585 110.788 186.144 110.428 186.636C110.073 187.129 109.576 187.517 108.937 187.801C108.298 188.085 107.554 188.227 106.707 188.227C105.594 188.227 104.673 187.986 103.944 187.503C103.215 187.02 102.753 186.314 102.559 185.386L104.15 184.989C104.301 185.576 104.588 186.016 105.009 186.31C105.435 186.603 105.992 186.75 106.678 186.75C107.46 186.75 108.08 186.584 108.539 186.253C109.003 185.917 109.235 185.514 109.235 185.045C109.235 184.667 109.103 184.349 108.837 184.094C108.572 183.833 108.165 183.639 107.616 183.511L105.798 183.085C104.799 182.848 104.065 182.482 103.596 181.984C103.132 181.482 102.9 180.855 102.9 180.102C102.9 179.487 103.073 178.942 103.418 178.469C103.769 177.995 104.245 177.624 104.846 177.354C105.452 177.084 106.138 176.949 106.906 176.949C107.985 176.949 108.833 177.186 109.448 177.659C110.068 178.133 110.509 178.758 110.769 179.534Z" fill="black"/>
<path d="M163.95 188V177.091H165.626V188H163.95ZM164.802 175.273C164.476 175.273 164.194 175.161 163.957 174.939C163.725 174.716 163.609 174.449 163.609 174.136C163.609 173.824 163.725 173.556 163.957 173.334C164.194 173.111 164.476 173 164.802 173C165.129 173 165.408 173.111 165.64 173.334C165.877 173.556 165.996 173.824 165.996 174.136C165.996 174.449 165.877 174.716 165.64 174.939C165.408 175.161 165.129 175.273 164.802 175.273ZM172.816 188.227C171.906 188.227 171.104 187.998 170.408 187.538C169.712 187.074 169.167 186.421 168.774 185.578C168.381 184.731 168.185 183.729 168.185 182.574C168.185 181.428 168.381 180.434 168.774 179.591C169.167 178.748 169.714 178.097 170.415 177.638C171.116 177.179 171.925 176.949 172.844 176.949C173.554 176.949 174.115 177.067 174.527 177.304C174.944 177.536 175.261 177.801 175.479 178.099C175.701 178.393 175.874 178.634 175.997 178.824H176.139V173.455H177.816V188H176.196V186.324H175.997C175.874 186.523 175.699 186.774 175.472 187.077C175.244 187.375 174.92 187.643 174.499 187.879C174.077 188.111 173.516 188.227 172.816 188.227ZM173.043 186.722C173.715 186.722 174.283 186.546 174.747 186.196C175.211 185.841 175.564 185.351 175.806 184.726C176.047 184.096 176.168 183.369 176.168 182.545C176.168 181.731 176.049 181.018 175.813 180.408C175.576 179.792 175.226 179.314 174.762 178.973C174.298 178.627 173.725 178.455 173.043 178.455C172.333 178.455 171.741 178.637 171.267 179.001C170.798 179.361 170.446 179.851 170.209 180.472C169.977 181.087 169.861 181.778 169.861 182.545C169.861 183.322 169.979 184.027 170.216 184.662C170.458 185.292 170.813 185.794 171.281 186.168C171.755 186.537 172.342 186.722 173.043 186.722Z" fill="black"/>
<path d="M236.493 173.455V188H234.817V173.455H236.493ZM243.995 188.227C243.01 188.227 242.146 187.993 241.403 187.524C240.664 187.055 240.087 186.4 239.67 185.557C239.258 184.714 239.052 183.729 239.052 182.602C239.052 181.466 239.258 180.474 239.67 179.626C240.087 178.779 240.664 178.121 241.403 177.652C242.146 177.183 243.01 176.949 243.995 176.949C244.98 176.949 245.842 177.183 246.58 177.652C247.324 178.121 247.901 178.779 248.313 179.626C248.73 180.474 248.938 181.466 248.938 182.602C248.938 183.729 248.73 184.714 248.313 185.557C247.901 186.4 247.324 187.055 246.58 187.524C245.842 187.993 244.98 188.227 243.995 188.227ZM243.995 186.722C244.743 186.722 245.359 186.53 245.842 186.146C246.325 185.763 246.682 185.259 246.914 184.634C247.146 184.009 247.262 183.331 247.262 182.602C247.262 181.873 247.146 181.194 246.914 180.564C246.682 179.934 246.325 179.425 245.842 179.037C245.359 178.649 244.743 178.455 243.995 178.455C243.247 178.455 242.632 178.649 242.149 179.037C241.666 179.425 241.308 179.934 241.076 180.564C240.844 181.194 240.728 181.873 240.728 182.602C240.728 183.331 240.844 184.009 241.076 184.634C241.308 185.259 241.666 185.763 242.149 186.146C242.632 186.53 243.247 186.722 243.995 186.722ZM254.707 188.256C254.016 188.256 253.389 188.125 252.825 187.865C252.262 187.6 251.814 187.219 251.483 186.722C251.151 186.22 250.986 185.614 250.986 184.903C250.986 184.278 251.109 183.772 251.355 183.384C251.601 182.991 251.93 182.683 252.342 182.46C252.754 182.238 253.209 182.072 253.706 181.963C254.208 181.849 254.712 181.759 255.219 181.693C255.881 181.608 256.419 181.544 256.831 181.501C257.247 181.454 257.55 181.376 257.74 181.267C257.934 181.158 258.031 180.969 258.031 180.699V180.642C258.031 179.941 257.839 179.397 257.456 179.009C257.077 178.62 256.502 178.426 255.73 178.426C254.93 178.426 254.302 178.601 253.848 178.952C253.393 179.302 253.074 179.676 252.889 180.074L251.298 179.506C251.582 178.843 251.961 178.327 252.434 177.957C252.913 177.583 253.434 177.323 253.997 177.176C254.565 177.025 255.124 176.949 255.673 176.949C256.023 176.949 256.426 176.991 256.881 177.077C257.34 177.157 257.782 177.325 258.209 177.581C258.64 177.837 258.997 178.223 259.281 178.739C259.565 179.255 259.707 179.946 259.707 180.812V188H258.031V186.523H257.946C257.832 186.759 257.643 187.013 257.378 187.283C257.113 187.553 256.76 187.782 256.319 187.972C255.879 188.161 255.342 188.256 254.707 188.256ZM254.963 186.75C255.626 186.75 256.184 186.62 256.639 186.359C257.098 186.099 257.444 185.763 257.676 185.351C257.913 184.939 258.031 184.506 258.031 184.051V182.517C257.96 182.602 257.804 182.68 257.562 182.751C257.326 182.818 257.051 182.877 256.738 182.929C256.431 182.976 256.13 183.019 255.836 183.057C255.548 183.09 255.313 183.118 255.133 183.142C254.698 183.199 254.291 183.291 253.912 183.419C253.538 183.542 253.235 183.729 253.003 183.98C252.775 184.226 252.662 184.562 252.662 184.989C252.662 185.571 252.877 186.011 253.308 186.31C253.744 186.603 254.295 186.75 254.963 186.75ZM266.886 188.227C265.977 188.227 265.174 187.998 264.478 187.538C263.782 187.074 263.238 186.421 262.845 185.578C262.452 184.731 262.255 183.729 262.255 182.574C262.255 181.428 262.452 180.434 262.845 179.591C263.238 178.748 263.785 178.097 264.485 177.638C265.186 177.179 265.996 176.949 266.914 176.949C267.624 176.949 268.186 177.067 268.597 177.304C269.014 177.536 269.331 177.801 269.549 178.099C269.772 178.393 269.945 178.634 270.068 178.824H270.21V173.455H271.886V188H270.267V186.324H270.068C269.945 186.523 269.769 186.774 269.542 187.077C269.315 187.375 268.99 187.643 268.569 187.879C268.148 188.111 267.587 188.227 266.886 188.227ZM267.113 186.722C267.785 186.722 268.354 186.546 268.818 186.196C269.282 185.841 269.634 185.351 269.876 184.726C270.117 184.096 270.238 183.369 270.238 182.545C270.238 181.731 270.12 181.018 269.883 180.408C269.646 179.792 269.296 179.314 268.832 178.973C268.368 178.627 267.795 178.455 267.113 178.455C266.403 178.455 265.811 178.637 265.338 179.001C264.869 179.361 264.516 179.851 264.279 180.472C264.047 181.087 263.931 181.778 263.931 182.545C263.931 183.322 264.05 184.027 264.286 184.662C264.528 185.292 264.883 185.794 265.352 186.168C265.825 186.537 266.412 186.722 267.113 186.722ZM279.762 188.227C278.711 188.227 277.804 187.995 277.042 187.531C276.285 187.062 275.7 186.409 275.288 185.571C274.881 184.728 274.677 183.748 274.677 182.631C274.677 181.513 274.881 180.528 275.288 179.676C275.7 178.819 276.273 178.152 277.007 177.673C277.745 177.19 278.607 176.949 279.592 176.949C280.16 176.949 280.721 177.044 281.275 177.233C281.829 177.422 282.333 177.73 282.788 178.156C283.242 178.578 283.605 179.136 283.874 179.832C284.144 180.528 284.279 181.385 284.279 182.403V183.114H275.87V181.665H282.575C282.575 181.049 282.452 180.5 282.205 180.017C281.964 179.534 281.618 179.153 281.169 178.874C280.723 178.594 280.198 178.455 279.592 178.455C278.924 178.455 278.347 178.62 277.859 178.952C277.376 179.278 277.004 179.705 276.744 180.23C276.483 180.756 276.353 181.319 276.353 181.92V182.886C276.353 183.71 276.495 184.409 276.779 184.982C277.068 185.55 277.468 185.983 277.98 186.281C278.491 186.575 279.085 186.722 279.762 186.722C280.203 186.722 280.6 186.66 280.955 186.537C281.315 186.409 281.625 186.22 281.886 185.969C282.146 185.713 282.347 185.396 282.49 185.017L284.109 185.472C283.938 186.021 283.652 186.504 283.249 186.92C282.847 187.332 282.35 187.654 281.758 187.886C281.166 188.114 280.501 188.227 279.762 188.227ZM290.948 188.227C290.039 188.227 289.237 187.998 288.541 187.538C287.845 187.074 287.3 186.421 286.907 185.578C286.514 184.731 286.318 183.729 286.318 182.574C286.318 181.428 286.514 180.434 286.907 179.591C287.3 178.748 287.847 178.097 288.548 177.638C289.249 177.179 290.058 176.949 290.977 176.949C291.687 176.949 292.248 177.067 292.66 177.304C293.077 177.536 293.394 177.801 293.612 178.099C293.834 178.393 294.007 178.634 294.13 178.824H294.272V173.455H295.948V188H294.329V186.324H294.13C294.007 186.523 293.832 186.774 293.605 187.077C293.377 187.375 293.053 187.643 292.632 187.879C292.21 188.111 291.649 188.227 290.948 188.227ZM291.176 186.722C291.848 186.722 292.416 186.546 292.88 186.196C293.344 185.841 293.697 185.351 293.938 184.726C294.18 184.096 294.301 183.369 294.301 182.545C294.301 181.731 294.182 181.018 293.945 180.408C293.709 179.792 293.358 179.314 292.894 178.973C292.43 178.627 291.857 178.455 291.176 178.455C290.465 178.455 289.874 178.637 289.4 179.001C288.931 179.361 288.579 179.851 288.342 180.472C288.11 181.087 287.994 181.778 287.994 182.545C287.994 183.322 288.112 184.027 288.349 184.662C288.59 185.292 288.945 185.794 289.414 186.168C289.888 186.537 290.475 186.722 291.176 186.722Z" fill="black"/>
<rect x="679" y="40" width="300" height="250" fill="#C4C4C4"/>
<path d="M795.683 52.4545H797.786L802.729 64.5284H802.899L807.842 52.4545H809.945V67H808.297V55.9489H808.155L803.609 67H802.018L797.473 55.9489H797.331V67H795.683V52.4545ZM817.681 67.2273C816.696 67.2273 815.832 66.9929 815.088 66.5241C814.35 66.0554 813.772 65.3996 813.355 64.5568C812.944 63.714 812.738 62.7292 812.738 61.6023C812.738 60.4659 812.944 59.474 813.355 58.6264C813.772 57.7789 814.35 57.1207 815.088 56.652C815.832 56.1832 816.696 55.9489 817.681 55.9489C818.666 55.9489 819.527 56.1832 820.266 56.652C821.009 57.1207 821.587 57.7789 821.999 58.6264C822.416 59.474 822.624 60.4659 822.624 61.6023C822.624 62.7292 822.416 63.714 821.999 64.5568C821.587 65.3996 821.009 66.0554 820.266 66.5241C819.527 66.9929 818.666 67.2273 817.681 67.2273ZM817.681 65.7216C818.429 65.7216 819.044 65.5298 819.527 65.1463C820.01 64.7628 820.368 64.2585 820.6 63.6335C820.832 63.0085 820.948 62.3314 820.948 61.6023C820.948 60.8731 820.832 60.1937 820.6 59.5639C820.368 58.9342 820.01 58.4252 819.527 58.0369C819.044 57.6487 818.429 57.4545 817.681 57.4545C816.933 57.4545 816.317 57.6487 815.834 58.0369C815.351 58.4252 814.994 58.9342 814.762 59.5639C814.53 60.1937 814.414 60.8731 814.414 61.6023C814.414 62.3314 814.53 63.0085 814.762 63.6335C814.994 64.2585 815.351 64.7628 815.834 65.1463C816.317 65.5298 816.933 65.7216 817.681 65.7216ZM829.302 67.2273C828.393 67.2273 827.59 66.9976 826.894 66.5384C826.198 66.0743 825.654 65.4209 825.261 64.5781C824.868 63.7306 824.671 62.7292 824.671 61.5739C824.671 60.428 824.868 59.4337 825.261 58.5909C825.654 57.7481 826.201 57.0971 826.901 56.6378C827.602 56.1785 828.412 55.9489 829.33 55.9489C830.04 55.9489 830.602 56.0672 831.013 56.304C831.43 56.536 831.747 56.8011 831.965 57.0994C832.188 57.393 832.361 57.6345 832.484 57.8239H832.626V52.4545H834.302V67H832.683V65.3239H832.484C832.361 65.5227 832.185 65.7737 831.958 66.0767C831.731 66.375 831.406 66.6425 830.985 66.8793C830.564 67.1113 830.003 67.2273 829.302 67.2273ZM829.529 65.7216C830.201 65.7216 830.77 65.5464 831.234 65.196C831.698 64.8409 832.05 64.3509 832.292 63.7259C832.533 63.0961 832.654 62.3693 832.654 61.5455C832.654 60.7311 832.536 60.0185 832.299 59.4077C832.062 58.7921 831.712 58.3139 831.248 57.973C830.784 57.6274 830.211 57.4545 829.529 57.4545C828.819 57.4545 828.227 57.6368 827.754 58.0014C827.285 58.3613 826.932 58.8513 826.695 59.4716C826.463 60.0871 826.347 60.7784 826.347 61.5455C826.347 62.322 826.466 63.0275 826.702 63.6619C826.944 64.2917 827.299 64.7936 827.768 65.1676C828.241 65.5369 828.828 65.7216 829.529 65.7216ZM844.479 62.5398V56.0909H846.156V67H844.479V65.1534H844.366C844.11 65.7074 843.712 66.1785 843.173 66.5668C842.633 66.9503 841.951 67.142 841.127 67.142C840.445 67.142 839.839 66.9929 839.309 66.6946C838.779 66.3916 838.362 65.937 838.059 65.331C837.756 64.7202 837.604 63.9508 837.604 63.0227V56.0909H839.281V62.9091C839.281 63.7045 839.503 64.339 839.948 64.8125C840.398 65.286 840.971 65.5227 841.667 65.5227C842.084 65.5227 842.507 65.4162 842.938 65.2031C843.374 64.9901 843.738 64.6634 844.032 64.223C844.33 63.7827 844.479 63.2216 844.479 62.5398ZM850.902 52.4545V67H849.225V52.4545H850.902ZM858.545 67.2273C857.494 67.2273 856.588 66.9953 855.825 66.5312C855.068 66.0625 854.483 65.4091 854.071 64.571C853.664 63.7282 853.46 62.7481 853.46 61.6307C853.46 60.5133 853.664 59.5284 854.071 58.6761C854.483 57.8191 855.056 57.1515 855.79 56.6733C856.528 56.1903 857.39 55.9489 858.375 55.9489C858.943 55.9489 859.504 56.0436 860.058 56.233C860.612 56.4223 861.116 56.7301 861.571 57.1562C862.026 57.5777 862.388 58.1364 862.658 58.8324C862.928 59.5284 863.062 60.3854 863.062 61.4034V62.1136H854.653V60.6648H861.358C861.358 60.0492 861.235 59.5 860.989 59.017C860.747 58.5341 860.402 58.1529 859.952 57.8736C859.507 57.5942 858.981 57.4545 858.375 57.4545C857.707 57.4545 857.13 57.6203 856.642 57.9517C856.159 58.2784 855.787 58.7045 855.527 59.2301C855.267 59.7557 855.136 60.3191 855.136 60.9205V61.8864C855.136 62.7102 855.278 63.4086 855.562 63.9815C855.851 64.5497 856.251 64.983 856.763 65.2812C857.274 65.5748 857.868 65.7216 858.545 65.7216C858.986 65.7216 859.384 65.66 859.739 65.5369C860.098 65.4091 860.409 65.2197 860.669 64.9688C860.929 64.7131 861.131 64.3958 861.273 64.017L862.892 64.4716C862.722 65.0208 862.435 65.5038 862.033 65.9205C861.63 66.3324 861.133 66.6544 860.541 66.8864C859.949 67.1136 859.284 67.2273 858.545 67.2273Z" fill="black"/>
<rect x="784" y="95" width="90" height="173" fill="#DDDDDD"/>
<rect x="689" y="95" width="90" height="173" fill="#DDDDDD"/>
<rect x="879" y="95" width="90" height="173" fill="#DDDDDD"/>
<path d="M704.151 188.227C703.1 188.227 702.193 187.995 701.431 187.531C700.673 187.062 700.088 186.409 699.676 185.571C699.269 184.728 699.066 183.748 699.066 182.631C699.066 181.513 699.269 180.528 699.676 179.676C700.088 178.819 700.661 178.152 701.395 177.673C702.134 177.19 702.996 176.949 703.98 176.949C704.549 176.949 705.11 177.044 705.664 177.233C706.218 177.422 706.722 177.73 707.176 178.156C707.631 178.578 707.993 179.136 708.263 179.832C708.533 180.528 708.668 181.385 708.668 182.403V183.114H700.259V181.665H706.963C706.963 181.049 706.84 180.5 706.594 180.017C706.353 179.534 706.007 179.153 705.557 178.874C705.112 178.594 704.587 178.455 703.98 178.455C703.313 178.455 702.735 178.62 702.248 178.952C701.765 179.278 701.393 179.705 701.132 180.23C700.872 180.756 700.742 181.319 700.742 181.92V182.886C700.742 183.71 700.884 184.409 701.168 184.982C701.457 185.55 701.857 185.983 702.368 186.281C702.88 186.575 703.474 186.722 704.151 186.722C704.591 186.722 704.989 186.66 705.344 186.537C705.704 186.409 706.014 186.22 706.275 185.969C706.535 185.713 706.736 185.396 706.878 185.017L708.498 185.472C708.327 186.021 708.041 186.504 707.638 186.92C707.236 187.332 706.739 187.654 706.147 187.886C705.555 188.114 704.89 188.227 704.151 188.227ZM712.175 177.091L714.788 181.551L717.402 177.091H719.334L715.811 182.545L719.334 188H717.402L714.788 183.767L712.175 188H710.243L713.709 182.545L710.243 177.091H712.175ZM721.725 192.091V177.091H723.345V178.824H723.544C723.667 178.634 723.837 178.393 724.055 178.099C724.278 177.801 724.595 177.536 725.007 177.304C725.423 177.067 725.987 176.949 726.697 176.949C727.616 176.949 728.425 177.179 729.126 177.638C729.827 178.097 730.374 178.748 730.767 179.591C731.16 180.434 731.356 181.428 731.356 182.574C731.356 183.729 731.16 184.731 730.767 185.578C730.374 186.421 729.829 187.074 729.133 187.538C728.437 187.998 727.635 188.227 726.725 188.227C726.025 188.227 725.464 188.111 725.042 187.879C724.621 187.643 724.297 187.375 724.069 187.077C723.842 186.774 723.667 186.523 723.544 186.324H723.402V192.091H721.725ZM723.373 182.545C723.373 183.369 723.494 184.096 723.735 184.726C723.977 185.351 724.33 185.841 724.794 186.196C725.258 186.546 725.826 186.722 726.498 186.722C727.199 186.722 727.784 186.537 728.252 186.168C728.726 185.794 729.081 185.292 729.318 184.662C729.559 184.027 729.68 183.322 729.68 182.545C729.68 181.778 729.562 181.087 729.325 180.472C729.093 179.851 728.74 179.361 728.267 179.001C727.798 178.637 727.208 178.455 726.498 178.455C725.816 178.455 725.243 178.627 724.779 178.973C724.315 179.314 723.965 179.792 723.728 180.408C723.492 181.018 723.373 181.731 723.373 182.545ZM738.345 188.227C737.36 188.227 736.496 187.993 735.752 187.524C735.014 187.055 734.436 186.4 734.02 185.557C733.608 184.714 733.402 183.729 733.402 182.602C733.402 181.466 733.608 180.474 734.02 179.626C734.436 178.779 735.014 178.121 735.752 177.652C736.496 177.183 737.36 176.949 738.345 176.949C739.33 176.949 740.191 177.183 740.93 177.652C741.673 178.121 742.251 178.779 742.663 179.626C743.08 180.474 743.288 181.466 743.288 182.602C743.288 183.729 743.08 184.714 742.663 185.557C742.251 186.4 741.673 187.055 740.93 187.524C740.191 187.993 739.33 188.227 738.345 188.227ZM738.345 186.722C739.093 186.722 739.708 186.53 740.191 186.146C740.674 185.763 741.032 185.259 741.264 184.634C741.496 184.009 741.612 183.331 741.612 182.602C741.612 181.873 741.496 181.194 741.264 180.564C741.032 179.934 740.674 179.425 740.191 179.037C739.708 178.649 739.093 178.455 738.345 178.455C737.597 178.455 736.981 178.649 736.498 179.037C736.015 179.425 735.658 179.934 735.426 180.564C735.194 181.194 735.078 181.873 735.078 182.602C735.078 183.331 735.194 184.009 735.426 184.634C735.658 185.259 736.015 185.763 736.498 186.146C736.981 186.53 737.597 186.722 738.345 186.722ZM745.847 188V177.091H747.466V178.739H747.58C747.778 178.199 748.138 177.761 748.659 177.425C749.18 177.089 749.767 176.92 750.42 176.92C750.544 176.92 750.697 176.923 750.882 176.928C751.067 176.932 751.206 176.939 751.301 176.949V178.653C751.244 178.639 751.114 178.618 750.911 178.589C750.712 178.556 750.501 178.54 750.278 178.54C749.748 178.54 749.275 178.651 748.858 178.874C748.446 179.091 748.119 179.394 747.878 179.783C747.641 180.166 747.523 180.604 747.523 181.097V188H745.847ZM758.716 177.091V178.511H753.062V177.091H758.716ZM754.71 174.477H756.386V184.875C756.386 185.348 756.455 185.704 756.592 185.94C756.734 186.172 756.914 186.329 757.132 186.409C757.355 186.485 757.589 186.523 757.835 186.523C758.02 186.523 758.171 186.513 758.29 186.494C758.408 186.471 758.503 186.452 758.574 186.438L758.915 187.943C758.801 187.986 758.643 188.028 758.439 188.071C758.235 188.118 757.977 188.142 757.665 188.142C757.191 188.142 756.727 188.04 756.273 187.837C755.823 187.633 755.449 187.323 755.151 186.906C754.857 186.49 754.71 185.964 754.71 185.33V174.477ZM768.769 179.534L767.263 179.96C767.169 179.709 767.029 179.465 766.844 179.229C766.665 178.987 766.418 178.788 766.106 178.632C765.793 178.476 765.393 178.398 764.906 178.398C764.238 178.398 763.682 178.552 763.237 178.859C762.796 179.162 762.576 179.548 762.576 180.017C762.576 180.434 762.728 180.763 763.031 181.004C763.334 181.246 763.807 181.447 764.451 181.608L766.07 182.006C767.046 182.242 767.772 182.605 768.251 183.092C768.729 183.575 768.968 184.198 768.968 184.96C768.968 185.585 768.788 186.144 768.428 186.636C768.073 187.129 767.576 187.517 766.937 187.801C766.298 188.085 765.554 188.227 764.707 188.227C763.594 188.227 762.673 187.986 761.944 187.503C761.215 187.02 760.753 186.314 760.559 185.386L762.15 184.989C762.301 185.576 762.588 186.016 763.009 186.31C763.435 186.603 763.992 186.75 764.678 186.75C765.46 186.75 766.08 186.584 766.539 186.253C767.003 185.917 767.235 185.514 767.235 185.045C767.235 184.667 767.103 184.349 766.837 184.094C766.572 183.833 766.165 183.639 765.616 183.511L763.798 183.085C762.799 182.848 762.065 182.482 761.596 181.984C761.132 181.482 760.9 180.855 760.9 180.102C760.9 179.487 761.073 178.942 761.418 178.469C761.769 177.995 762.245 177.624 762.846 177.354C763.452 177.084 764.138 176.949 764.906 176.949C765.985 176.949 766.833 177.186 767.448 177.659C768.068 178.133 768.509 178.758 768.769 179.534Z" fill="black"/>
<path d="M821.95 188V177.091H823.626V188H821.95ZM822.802 175.273C822.476 175.273 822.194 175.161 821.957 174.939C821.725 174.716 821.609 174.449 821.609 174.136C821.609 173.824 821.725 173.556 821.957 173.334C822.194 173.111 822.476 173 822.802 173C823.129 173 823.408 173.111 823.64 173.334C823.877 173.556 823.996 173.824 823.996 174.136C823.996 174.449 823.877 174.716 823.64 174.939C823.408 175.161 823.129 175.273 822.802 175.273ZM830.816 188.227C829.906 188.227 829.104 187.998 828.408 187.538C827.712 187.074 827.167 186.421 826.774 185.578C826.381 184.731 826.185 183.729 826.185 182.574C826.185 181.428 826.381 180.434 826.774 179.591C827.167 178.748 827.714 178.097 828.415 177.638C829.116 177.179 829.925 176.949 830.844 176.949C831.554 176.949 832.115 177.067 832.527 177.304C832.944 177.536 833.261 177.801 833.479 178.099C833.701 178.393 833.874 178.634 833.997 178.824H834.139V173.455H835.816V188H834.196V186.324H833.997C833.874 186.523 833.699 186.774 833.472 187.077C833.244 187.375 832.92 187.643 832.499 187.879C832.077 188.111 831.516 188.227 830.816 188.227ZM831.043 186.722C831.715 186.722 832.283 186.546 832.747 186.196C833.211 185.841 833.564 185.351 833.806 184.726C834.047 184.096 834.168 183.369 834.168 182.545C834.168 181.731 834.049 181.018 833.813 180.408C833.576 179.792 833.226 179.314 832.762 178.973C832.298 178.627 831.725 178.455 831.043 178.455C830.333 178.455 829.741 178.637 829.267 179.001C828.798 179.361 828.446 179.851 828.209 180.472C827.977 181.087 827.861 181.778 827.861 182.545C827.861 183.322 827.979 184.027 828.216 184.662C828.458 185.292 828.813 185.794 829.281 186.168C829.755 186.537 830.342 186.722 831.043 186.722Z" fill="black"/>
<path d="M894.493 173.455V188H892.817V173.455H894.493ZM901.995 188.227C901.01 188.227 900.146 187.993 899.403 187.524C898.664 187.055 898.087 186.4 897.67 185.557C897.258 184.714 897.052 183.729 897.052 182.602C897.052 181.466 897.258 180.474 897.67 179.626C898.087 178.779 898.664 178.121 899.403 177.652C900.146 177.183 901.01 176.949 901.995 176.949C902.98 176.949 903.842 177.183 904.58 177.652C905.324 178.121 905.901 178.779 906.313 179.626C906.73 180.474 906.938 181.466 906.938 182.602C906.938 183.729 906.73 184.714 906.313 185.557C905.901 186.4 905.324 187.055 904.58 187.524C903.842 187.993 902.98 188.227 901.995 188.227ZM901.995 186.722C902.743 186.722 903.359 186.53 903.842 186.146C904.325 185.763 904.682 185.259 904.914 184.634C905.146 184.009 905.262 183.331 905.262 182.602C905.262 181.873 905.146 181.194 904.914 180.564C904.682 179.934 904.325 179.425 903.842 179.037C903.359 178.649 902.743 178.455 901.995 178.455C901.247 178.455 900.632 178.649 900.149 179.037C899.666 179.425 899.308 179.934 899.076 180.564C898.844 181.194 898.728 181.873 898.728 182.602C898.728 183.331 898.844 184.009 899.076 184.634C899.308 185.259 899.666 185.763 900.149 186.146C900.632 186.53 901.247 186.722 901.995 186.722ZM912.707 188.256C912.016 188.256 911.389 188.125 910.825 187.865C910.262 187.6 909.814 187.219 909.483 186.722C909.151 186.22 908.986 185.614 908.986 184.903C908.986 184.278 909.109 183.772 909.355 183.384C909.601 182.991 909.93 182.683 910.342 182.46C910.754 182.238 911.209 182.072 911.706 181.963C912.208 181.849 912.712 181.759 913.219 181.693C913.881 181.608 914.419 181.544 914.831 181.501C915.247 181.454 915.55 181.376 915.74 181.267C915.934 181.158 916.031 180.969 916.031 180.699V180.642C916.031 179.941 915.839 179.397 915.456 179.009C915.077 178.62 914.502 178.426 913.73 178.426C912.93 178.426 912.302 178.601 911.848 178.952C911.393 179.302 911.074 179.676 910.889 180.074L909.298 179.506C909.582 178.843 909.961 178.327 910.434 177.957C910.913 177.583 911.434 177.323 911.997 177.176C912.565 177.025 913.124 176.949 913.673 176.949C914.023 176.949 914.426 176.991 914.881 177.077C915.34 177.157 915.782 177.325 916.209 177.581C916.64 177.837 916.997 178.223 917.281 178.739C917.565 179.255 917.707 179.946 917.707 180.812V188H916.031V186.523H915.946C915.832 186.759 915.643 187.013 915.378 187.283C915.113 187.553 914.76 187.782 914.319 187.972C913.879 188.161 913.342 188.256 912.707 188.256ZM912.963 186.75C913.626 186.75 914.184 186.62 914.639 186.359C915.098 186.099 915.444 185.763 915.676 185.351C915.913 184.939 916.031 184.506 916.031 184.051V182.517C915.96 182.602 915.804 182.68 915.562 182.751C915.326 182.818 915.051 182.877 914.738 182.929C914.431 182.976 914.13 183.019 913.836 183.057C913.548 183.09 913.313 183.118 913.133 183.142C912.698 183.199 912.291 183.291 911.912 183.419C911.538 183.542 911.235 183.729 911.003 183.98C910.775 184.226 910.662 184.562 910.662 184.989C910.662 185.571 910.877 186.011 911.308 186.31C911.744 186.603 912.295 186.75 912.963 186.75ZM924.886 188.227C923.977 188.227 923.174 187.998 922.478 187.538C921.782 187.074 921.238 186.421 920.845 185.578C920.452 184.731 920.255 183.729 920.255 182.574C920.255 181.428 920.452 180.434 920.845 179.591C921.238 178.748 921.785 178.097 922.485 177.638C923.186 177.179 923.996 176.949 924.914 176.949C925.624 176.949 926.186 177.067 926.597 177.304C927.014 177.536 927.331 177.801 927.549 178.099C927.772 178.393 927.945 178.634 928.068 178.824H928.21V173.455H929.886V188H928.267V186.324H928.068C927.945 186.523 927.769 186.774 927.542 187.077C927.315 187.375 926.99 187.643 926.569 187.879C926.148 188.111 925.587 188.227 924.886 188.227ZM925.113 186.722C925.785 186.722 926.354 186.546 926.818 186.196C927.282 185.841 927.634 185.351 927.876 184.726C928.117 184.096 928.238 183.369 928.238 182.545C928.238 181.731 928.12 181.018 927.883 180.408C927.646 179.792 927.296 179.314 926.832 178.973C926.368 178.627 925.795 178.455 925.113 178.455C924.403 178.455 923.811 178.637 923.338 179.001C922.869 179.361 922.516 179.851 922.279 180.472C922.047 181.087 921.931 181.778 921.931 182.545C921.931 183.322 922.05 184.027 922.286 184.662C922.528 185.292 922.883 185.794 923.352 186.168C923.825 186.537 924.412 186.722 925.113 186.722ZM937.762 188.227C936.711 188.227 935.804 187.995 935.042 187.531C934.285 187.062 933.7 186.409 933.288 185.571C932.881 184.728 932.677 183.748 932.677 182.631C932.677 181.513 932.881 180.528 933.288 179.676C933.7 178.819 934.273 178.152 935.007 177.673C935.745 177.19 936.607 176.949 937.592 176.949C938.16 176.949 938.721 177.044 939.275 177.233C939.829 177.422 940.333 177.73 940.788 178.156C941.242 178.578 941.605 179.136 941.874 179.832C942.144 180.528 942.279 181.385 942.279 182.403V183.114H933.87V181.665H940.575C940.575 181.049 940.452 180.5 940.205 180.017C939.964 179.534 939.618 179.153 939.169 178.874C938.723 178.594 938.198 178.455 937.592 178.455C936.924 178.455 936.347 178.62 935.859 178.952C935.376 179.278 935.004 179.705 934.744 180.23C934.483 180.756 934.353 181.319 934.353 181.92V182.886C934.353 183.71 934.495 184.409 934.779 184.982C935.068 185.55 935.468 185.983 935.98 186.281C936.491 186.575 937.085 186.722 937.762 186.722C938.203 186.722 938.6 186.66 938.955 186.537C939.315 186.409 939.625 186.22 939.886 185.969C940.146 185.713 940.347 185.396 940.49 185.017L942.109 185.472C941.938 186.021 941.652 186.504 941.249 186.92C940.847 187.332 940.35 187.654 939.758 187.886C939.166 188.114 938.501 188.227 937.762 188.227ZM948.948 188.227C948.039 188.227 947.237 187.998 946.541 187.538C945.845 187.074 945.3 186.421 944.907 185.578C944.514 184.731 944.318 183.729 944.318 182.574C944.318 181.428 944.514 180.434 944.907 179.591C945.3 178.748 945.847 178.097 946.548 177.638C947.249 177.179 948.058 176.949 948.977 176.949C949.687 176.949 950.248 177.067 950.66 177.304C951.077 177.536 951.394 177.801 951.612 178.099C951.834 178.393 952.007 178.634 952.13 178.824H952.272V173.455H953.948V188H952.329V186.324H952.13C952.007 186.523 951.832 186.774 951.605 187.077C951.377 187.375 951.053 187.643 950.632 187.879C950.21 188.111 949.649 188.227 948.948 188.227ZM949.176 186.722C949.848 186.722 950.416 186.546 950.88 186.196C951.344 185.841 951.697 185.351 951.938 184.726C952.18 184.096 952.301 183.369 952.301 182.545C952.301 181.731 952.182 181.018 951.945 180.408C951.709 179.792 951.358 179.314 950.894 178.973C950.43 178.627 949.857 178.455 949.176 178.455C948.465 178.455 947.874 178.637 947.4 179.001C946.931 179.361 946.579 179.851 946.342 180.472C946.11 181.087 945.994 181.778 945.994 182.545C945.994 183.322 946.112 184.027 946.349 184.662C946.59 185.292 946.945 185.794 947.414 186.168C947.888 186.537 948.475 186.722 949.176 186.722Z" fill="black"/>
</svg>
