<svg width="300" height="250" viewBox="0 0 300 250" fill="none" xmlns="http://www.w3.org/2000/svg">
<rect width="300" height="250" fill="#C4C4C4"/>
<path d="M116.683 12.4545H118.786L123.729 24.5284H123.899L128.842 12.4545H130.945V27H129.297V15.9489H129.155L124.609 27H123.018L118.473 15.9489H118.331V27H116.683V12.4545ZM138.681 27.2273C137.696 27.2273 136.832 26.9929 136.088 26.5241C135.35 26.0554 134.772 25.3996 134.355 24.5568C133.944 23.714 133.738 22.7292 133.738 21.6023C133.738 20.4659 133.944 19.474 134.355 18.6264C134.772 17.7789 135.35 17.1207 136.088 16.652C136.832 16.1832 137.696 15.9489 138.681 15.9489C139.666 15.9489 140.527 16.1832 141.266 16.652C142.009 17.1207 142.587 17.7789 142.999 18.6264C143.416 19.474 143.624 20.4659 143.624 21.6023C143.624 22.7292 143.416 23.714 142.999 24.5568C142.587 25.3996 142.009 26.0554 141.266 26.5241C140.527 26.9929 139.666 27.2273 138.681 27.2273ZM138.681 25.7216C139.429 25.7216 140.044 25.5298 140.527 25.1463C141.01 24.7628 141.368 24.2585 141.6 23.6335C141.832 23.0085 141.948 22.3314 141.948 21.6023C141.948 20.8731 141.832 20.1937 141.6 19.5639C141.368 18.9342 141.01 18.4252 140.527 18.0369C140.044 17.6487 139.429 17.4545 138.681 17.4545C137.933 17.4545 137.317 17.6487 136.834 18.0369C136.351 18.4252 135.994 18.9342 135.762 19.5639C135.53 20.1937 135.414 20.8731 135.414 21.6023C135.414 22.3314 135.53 23.0085 135.762 23.6335C135.994 24.2585 136.351 24.7628 136.834 25.1463C137.317 25.5298 137.933 25.7216 138.681 25.7216ZM150.302 27.2273C149.393 27.2273 148.59 26.9976 147.894 26.5384C147.198 26.0743 146.654 25.4209 146.261 24.5781C145.868 23.7306 145.671 22.7292 145.671 21.5739C145.671 20.428 145.868 19.4337 146.261 18.5909C146.654 17.7481 147.201 17.0971 147.901 16.6378C148.602 16.1785 149.412 15.9489 150.33 15.9489C151.04 15.9489 151.602 16.0672 152.013 16.304C152.43 16.536 152.747 16.8011 152.965 17.0994C153.188 17.393 153.361 17.6345 153.484 17.8239H153.626V12.4545H155.302V27H153.683V25.3239H153.484C153.361 25.5227 153.185 25.7737 152.958 26.0767C152.731 26.375 152.406 26.6425 151.985 26.8793C151.564 27.1113 151.003 27.2273 150.302 27.2273ZM150.529 25.7216C151.201 25.7216 151.77 25.5464 152.234 25.196C152.698 24.8409 153.05 24.3509 153.292 23.7259C153.533 23.0961 153.654 22.3693 153.654 21.5455C153.654 20.7311 153.536 20.0185 153.299 19.4077C153.062 18.7921 152.712 18.3139 152.248 17.973C151.784 17.6274 151.211 17.4545 150.529 17.4545C149.819 17.4545 149.227 17.6368 148.754 18.0014C148.285 18.3613 147.932 18.8513 147.695 19.4716C147.463 20.0871 147.347 20.7784 147.347 21.5455C147.347 22.322 147.466 23.0275 147.702 23.6619C147.944 24.2917 148.299 24.7936 148.768 25.1676C149.241 25.5369 149.828 25.7216 150.529 25.7216ZM165.479 22.5398V16.0909H167.156V27H165.479V25.1534H165.366C165.11 25.7074 164.712 26.1785 164.173 26.5668C163.633 26.9503 162.951 27.142 162.127 27.142C161.445 27.142 160.839 26.9929 160.309 26.6946C159.779 26.3916 159.362 25.937 159.059 25.331C158.756 24.7202 158.604 23.9508 158.604 23.0227V16.0909H160.281V22.9091C160.281 23.7045 160.503 24.339 160.948 24.8125C161.398 25.286 161.971 25.5227 162.667 25.5227C163.084 25.5227 163.507 25.4162 163.938 25.2031C164.374 24.9901 164.738 24.6634 165.032 24.223C165.33 23.7827 165.479 23.2216 165.479 22.5398ZM171.902 12.4545V27H170.225V12.4545H171.902ZM179.545 27.2273C178.494 27.2273 177.588 26.9953 176.825 26.5312C176.068 26.0625 175.483 25.4091 175.071 24.571C174.664 23.7282 174.46 22.7481 174.46 21.6307C174.46 20.5133 174.664 19.5284 175.071 18.6761C175.483 17.8191 176.056 17.1515 176.79 16.6733C177.528 16.1903 178.39 15.9489 179.375 15.9489C179.943 15.9489 180.504 16.0436 181.058 16.233C181.612 16.4223 182.116 16.7301 182.571 17.1562C183.026 17.5777 183.388 18.1364 183.658 18.8324C183.928 19.5284 184.062 20.3854 184.062 21.4034V22.1136H175.653V20.6648H182.358C182.358 20.0492 182.235 19.5 181.989 19.017C181.747 18.5341 181.402 18.1529 180.952 17.8736C180.507 17.5942 179.981 17.4545 179.375 17.4545C178.707 17.4545 178.13 17.6203 177.642 17.9517C177.159 18.2784 176.787 18.7045 176.527 19.2301C176.267 19.7557 176.136 20.3191 176.136 20.9205V21.8864C176.136 22.7102 176.278 23.4086 176.562 23.9815C176.851 24.5497 177.251 24.983 177.763 25.2812C178.274 25.5748 178.868 25.7216 179.545 25.7216C179.986 25.7216 180.384 25.66 180.739 25.5369C181.098 25.4091 181.409 25.2197 181.669 24.9688C181.929 24.7131 182.131 24.3958 182.273 24.017L183.892 24.4716C183.722 25.0208 183.435 25.5038 183.033 25.9205C182.63 26.3324 182.133 26.6544 181.541 26.8864C180.949 27.1136 180.284 27.2273 179.545 27.2273Z" fill="black"/>
<rect x="105" y="55" width="90" height="173" fill="#DDDDDD"/>
<rect x="10" y="55" width="90" height="173" fill="#DDDDDD"/>
<rect x="200" y="55" width="90" height="173" fill="#DDDDDD"/>
<path d="M25.1509 148.227C24.0998 148.227 23.1931 147.995 22.4308 147.531C21.6732 147.062 21.0884 146.409 20.6765 145.571C20.2693 144.728 20.0657 143.748 20.0657 142.631C20.0657 141.513 20.2693 140.528 20.6765 139.676C21.0884 138.819 21.6613 138.152 22.3952 137.673C23.1339 137.19 23.9956 136.949 24.9805 136.949C25.5487 136.949 26.1097 137.044 26.6637 137.233C27.2177 137.422 27.7219 137.73 28.1765 138.156C28.631 138.578 28.9933 139.136 29.2631 139.832C29.533 140.528 29.668 141.385 29.668 142.403V143.114H21.2589V141.665H27.9634C27.9634 141.049 27.8403 140.5 27.5941 140.017C27.3526 139.534 27.007 139.153 26.5572 138.874C26.1121 138.594 25.5865 138.455 24.9805 138.455C24.3129 138.455 23.7352 138.62 23.2475 138.952C22.7646 139.278 22.3929 139.705 22.1325 140.23C21.872 140.756 21.7418 141.319 21.7418 141.92V142.886C21.7418 143.71 21.8839 144.409 22.168 144.982C22.4568 145.55 22.8569 145.983 23.3683 146.281C23.8796 146.575 24.4738 146.722 25.1509 146.722C25.5913 146.722 25.989 146.66 26.3441 146.537C26.704 146.409 27.0141 146.22 27.2745 145.969C27.5349 145.713 27.7362 145.396 27.8782 145.017L29.4975 145.472C29.3271 146.021 29.0406 146.504 28.6381 146.92C28.2357 147.332 27.7385 147.654 27.1467 147.886C26.5548 148.114 25.8896 148.227 25.1509 148.227ZM33.1747 137.091L35.7884 141.551L38.402 137.091H40.3338L36.8111 142.545L40.3338 148H38.402L35.7884 143.767L33.1747 148H31.2429L34.7088 142.545L31.2429 137.091H33.1747ZM42.7255 152.091V137.091H44.3448V138.824H44.5437C44.6668 138.634 44.8372 138.393 45.055 138.099C45.2776 137.801 45.5948 137.536 46.0067 137.304C46.4234 137.067 46.9869 136.949 47.6971 136.949C48.6156 136.949 49.4253 137.179 50.1261 137.638C50.8268 138.097 51.3737 138.748 51.7667 139.591C52.1597 140.434 52.3562 141.428 52.3562 142.574C52.3562 143.729 52.1597 144.731 51.7667 145.578C51.3737 146.421 50.8292 147.074 50.1332 147.538C49.4371 147.998 48.6346 148.227 47.7255 148.227C47.0247 148.227 46.4637 148.111 46.0423 147.879C45.6209 147.643 45.2965 147.375 45.0692 147.077C44.842 146.774 44.6668 146.523 44.5437 146.324H44.4016V152.091H42.7255ZM44.3732 142.545C44.3732 143.369 44.494 144.096 44.7354 144.726C44.9769 145.351 45.3297 145.841 45.7937 146.196C46.2577 146.546 46.8259 146.722 47.4982 146.722C48.199 146.722 48.7837 146.537 49.2525 146.168C49.726 145.794 50.0811 145.292 50.3178 144.662C50.5593 144.027 50.68 143.322 50.68 142.545C50.68 141.778 50.5617 141.087 50.3249 140.472C50.0929 139.851 49.7402 139.361 49.2667 139.001C48.7979 138.637 48.2085 138.455 47.4982 138.455C46.8164 138.455 46.2435 138.627 45.7795 138.973C45.3155 139.314 44.9651 139.792 44.7283 140.408C44.4916 141.018 44.3732 141.731 44.3732 142.545ZM59.3448 148.227C58.36 148.227 57.4959 147.993 56.7525 147.524C56.0138 147.055 55.4362 146.4 55.0195 145.557C54.6076 144.714 54.4016 143.729 54.4016 142.602C54.4016 141.466 54.6076 140.474 55.0195 139.626C55.4362 138.779 56.0138 138.121 56.7525 137.652C57.4959 137.183 58.36 136.949 59.3448 136.949C60.3297 136.949 61.1914 137.183 61.93 137.652C62.6734 138.121 63.2511 138.779 63.663 139.626C64.0797 140.474 64.288 141.466 64.288 142.602C64.288 143.729 64.0797 144.714 63.663 145.557C63.2511 146.4 62.6734 147.055 61.93 147.524C61.1914 147.993 60.3297 148.227 59.3448 148.227ZM59.3448 146.722C60.0929 146.722 60.7085 146.53 61.1914 146.146C61.6744 145.763 62.0318 145.259 62.2638 144.634C62.4959 144.009 62.6119 143.331 62.6119 142.602C62.6119 141.873 62.4959 141.194 62.2638 140.564C62.0318 139.934 61.6744 139.425 61.1914 139.037C60.7085 138.649 60.0929 138.455 59.3448 138.455C58.5967 138.455 57.9812 138.649 57.4982 139.037C57.0153 139.425 56.6578 139.934 56.4258 140.564C56.1938 141.194 56.0778 141.873 56.0778 142.602C56.0778 143.331 56.1938 144.009 56.4258 144.634C56.6578 145.259 57.0153 145.763 57.4982 146.146C57.9812 146.53 58.5967 146.722 59.3448 146.722ZM66.8466 148V137.091H68.4659V138.739H68.5795C68.7784 138.199 69.1383 137.761 69.6591 137.425C70.1799 137.089 70.767 136.92 71.4205 136.92C71.5436 136.92 71.6974 136.923 71.8821 136.928C72.0668 136.932 72.2064 136.939 72.3011 136.949V138.653C72.2443 138.639 72.1141 138.618 71.9105 138.589C71.7116 138.556 71.5009 138.54 71.2784 138.54C70.7481 138.54 70.2746 138.651 69.858 138.874C69.446 139.091 69.1193 139.394 68.8778 139.783C68.6411 140.166 68.5227 140.604 68.5227 141.097V148H66.8466ZM79.7159 137.091V138.511H74.0625V137.091H79.7159ZM75.7102 134.477H77.3864V144.875C77.3864 145.348 77.455 145.704 77.5923 145.94C77.7344 146.172 77.9143 146.329 78.1321 146.409C78.3546 146.485 78.589 146.523 78.8352 146.523C79.0199 146.523 79.1714 146.513 79.2898 146.494C79.4081 146.471 79.5028 146.452 79.5739 146.438L79.9148 147.943C79.8011 147.986 79.6425 148.028 79.4389 148.071C79.2353 148.118 78.9773 148.142 78.6648 148.142C78.1913 148.142 77.7273 148.04 77.2727 147.837C76.8229 147.633 76.4489 147.323 76.1506 146.906C75.857 146.49 75.7102 145.964 75.7102 145.33V134.477ZM89.7692 139.534L88.2635 139.96C88.1688 139.709 88.0291 139.465 87.8445 139.229C87.6645 138.987 87.4183 138.788 87.1058 138.632C86.7933 138.476 86.3932 138.398 85.9055 138.398C85.2379 138.398 84.6816 138.552 84.2365 138.859C83.7962 139.162 83.576 139.548 83.576 140.017C83.576 140.434 83.7275 140.763 84.0305 141.004C84.3336 141.246 84.8071 141.447 85.451 141.608L87.0703 142.006C88.0457 142.242 88.7725 142.605 89.2507 143.092C89.7289 143.575 89.968 144.198 89.968 144.96C89.968 145.585 89.7881 146.144 89.4283 146.636C89.0732 147.129 88.576 147.517 87.9368 147.801C87.2976 148.085 86.5542 148.227 85.7067 148.227C84.594 148.227 83.6731 147.986 82.9439 147.503C82.2147 147.02 81.7531 146.314 81.5589 145.386L83.1499 144.989C83.3014 145.576 83.5878 146.016 84.0092 146.31C84.4354 146.603 84.9917 146.75 85.6783 146.75C86.4595 146.75 87.0798 146.584 87.5391 146.253C88.0031 145.917 88.2351 145.514 88.2351 145.045C88.2351 144.667 88.1025 144.349 87.8374 144.094C87.5722 143.833 87.165 143.639 86.6158 143.511L84.7976 143.085C83.7985 142.848 83.0646 142.482 82.5959 141.984C82.1319 141.482 81.8999 140.855 81.8999 140.102C81.8999 139.487 82.0727 138.942 82.4183 138.469C82.7687 137.995 83.2446 137.624 83.8459 137.354C84.4519 137.084 85.1385 136.949 85.9055 136.949C86.9851 136.949 87.8326 137.186 88.4482 137.659C89.0684 138.133 89.5088 138.758 89.7692 139.534Z" fill="black"/>
<path d="M142.95 148V137.091H144.626V148H142.95ZM143.802 135.273C143.476 135.273 143.194 135.161 142.957 134.939C142.725 134.716 142.609 134.449 142.609 134.136C142.609 133.824 142.725 133.556 142.957 133.334C143.194 133.111 143.476 133 143.802 133C144.129 133 144.408 133.111 144.64 133.334C144.877 133.556 144.996 133.824 144.996 134.136C144.996 134.449 144.877 134.716 144.64 134.939C144.408 135.161 144.129 135.273 143.802 135.273ZM151.816 148.227C150.906 148.227 150.104 147.998 149.408 147.538C148.712 147.074 148.167 146.421 147.774 145.578C147.381 144.731 147.185 143.729 147.185 142.574C147.185 141.428 147.381 140.434 147.774 139.591C148.167 138.748 148.714 138.097 149.415 137.638C150.116 137.179 150.925 136.949 151.844 136.949C152.554 136.949 153.115 137.067 153.527 137.304C153.944 137.536 154.261 137.801 154.479 138.099C154.701 138.393 154.874 138.634 154.997 138.824H155.139V133.455H156.816V148H155.196V146.324H154.997C154.874 146.523 154.699 146.774 154.472 147.077C154.244 147.375 153.92 147.643 153.499 147.879C153.077 148.111 152.516 148.227 151.816 148.227ZM152.043 146.722C152.715 146.722 153.283 146.546 153.747 146.196C154.211 145.841 154.564 145.351 154.806 144.726C155.047 144.096 155.168 143.369 155.168 142.545C155.168 141.731 155.049 141.018 154.813 140.408C154.576 139.792 154.226 139.314 153.762 138.973C153.298 138.627 152.725 138.455 152.043 138.455C151.333 138.455 150.741 138.637 150.267 139.001C149.798 139.361 149.446 139.851 149.209 140.472C148.977 141.087 148.861 141.778 148.861 142.545C148.861 143.322 148.979 144.027 149.216 144.662C149.458 145.292 149.813 145.794 150.281 146.168C150.755 146.537 151.342 146.722 152.043 146.722Z" fill="black"/>
<path d="M215.493 133.455V148H213.817V133.455H215.493ZM222.995 148.227C222.01 148.227 221.146 147.993 220.403 147.524C219.664 147.055 219.087 146.4 218.67 145.557C218.258 144.714 218.052 143.729 218.052 142.602C218.052 141.466 218.258 140.474 218.67 139.626C219.087 138.779 219.664 138.121 220.403 137.652C221.146 137.183 222.01 136.949 222.995 136.949C223.98 136.949 224.842 137.183 225.58 137.652C226.324 138.121 226.901 138.779 227.313 139.626C227.73 140.474 227.938 141.466 227.938 142.602C227.938 143.729 227.73 144.714 227.313 145.557C226.901 146.4 226.324 147.055 225.58 147.524C224.842 147.993 223.98 148.227 222.995 148.227ZM222.995 146.722C223.743 146.722 224.359 146.53 224.842 146.146C225.325 145.763 225.682 145.259 225.914 144.634C226.146 144.009 226.262 143.331 226.262 142.602C226.262 141.873 226.146 141.194 225.914 140.564C225.682 139.934 225.325 139.425 224.842 139.037C224.359 138.649 223.743 138.455 222.995 138.455C222.247 138.455 221.632 138.649 221.149 139.037C220.666 139.425 220.308 139.934 220.076 140.564C219.844 141.194 219.728 141.873 219.728 142.602C219.728 143.331 219.844 144.009 220.076 144.634C220.308 145.259 220.666 145.763 221.149 146.146C221.632 146.53 222.247 146.722 222.995 146.722ZM233.707 148.256C233.016 148.256 232.389 148.125 231.825 147.865C231.262 147.6 230.814 147.219 230.483 146.722C230.151 146.22 229.986 145.614 229.986 144.903C229.986 144.278 230.109 143.772 230.355 143.384C230.601 142.991 230.93 142.683 231.342 142.46C231.754 142.238 232.209 142.072 232.706 141.963C233.208 141.849 233.712 141.759 234.219 141.693C234.881 141.608 235.419 141.544 235.831 141.501C236.247 141.454 236.55 141.376 236.74 141.267C236.934 141.158 237.031 140.969 237.031 140.699V140.642C237.031 139.941 236.839 139.397 236.456 139.009C236.077 138.62 235.502 138.426 234.73 138.426C233.93 138.426 233.302 138.601 232.848 138.952C232.393 139.302 232.074 139.676 231.889 140.074L230.298 139.506C230.582 138.843 230.961 138.327 231.434 137.957C231.913 137.583 232.434 137.323 232.997 137.176C233.565 137.025 234.124 136.949 234.673 136.949C235.023 136.949 235.426 136.991 235.881 137.077C236.34 137.157 236.782 137.325 237.209 137.581C237.64 137.837 237.997 138.223 238.281 138.739C238.565 139.255 238.707 139.946 238.707 140.812V148H237.031V146.523H236.946C236.832 146.759 236.643 147.013 236.378 147.283C236.113 147.553 235.76 147.782 235.319 147.972C234.879 148.161 234.342 148.256 233.707 148.256ZM233.963 146.75C234.626 146.75 235.184 146.62 235.639 146.359C236.098 146.099 236.444 145.763 236.676 145.351C236.913 144.939 237.031 144.506 237.031 144.051V142.517C236.96 142.602 236.804 142.68 236.562 142.751C236.326 142.818 236.051 142.877 235.738 142.929C235.431 142.976 235.13 143.019 234.836 143.057C234.548 143.09 234.313 143.118 234.133 143.142C233.698 143.199 233.291 143.291 232.912 143.419C232.538 143.542 232.235 143.729 232.003 143.98C231.775 144.226 231.662 144.562 231.662 144.989C231.662 145.571 231.877 146.011 232.308 146.31C232.744 146.603 233.295 146.75 233.963 146.75ZM245.886 148.227C244.977 148.227 244.174 147.998 243.478 147.538C242.782 147.074 242.238 146.421 241.845 145.578C241.452 144.731 241.255 143.729 241.255 142.574C241.255 141.428 241.452 140.434 241.845 139.591C242.238 138.748 242.785 138.097 243.485 137.638C244.186 137.179 244.996 136.949 245.914 136.949C246.624 136.949 247.186 137.067 247.597 137.304C248.014 137.536 248.331 137.801 248.549 138.099C248.772 138.393 248.945 138.634 249.068 138.824H249.21V133.455H250.886V148H249.267V146.324H249.068C248.945 146.523 248.769 146.774 248.542 147.077C248.315 147.375 247.99 147.643 247.569 147.879C247.148 148.111 246.587 148.227 245.886 148.227ZM246.113 146.722C246.785 146.722 247.354 146.546 247.818 146.196C248.282 145.841 248.634 145.351 248.876 144.726C249.117 144.096 249.238 143.369 249.238 142.545C249.238 141.731 249.12 141.018 248.883 140.408C248.646 139.792 248.296 139.314 247.832 138.973C247.368 138.627 246.795 138.455 246.113 138.455C245.403 138.455 244.811 138.637 244.338 139.001C243.869 139.361 243.516 139.851 243.279 140.472C243.047 141.087 242.931 141.778 242.931 142.545C242.931 143.322 243.05 144.027 243.286 144.662C243.528 145.292 243.883 145.794 244.352 146.168C244.825 146.537 245.412 146.722 246.113 146.722ZM258.762 148.227C257.711 148.227 256.804 147.995 256.042 147.531C255.285 147.062 254.7 146.409 254.288 145.571C253.881 144.728 253.677 143.748 253.677 142.631C253.677 141.513 253.881 140.528 254.288 139.676C254.7 138.819 255.273 138.152 256.007 137.673C256.745 137.19 257.607 136.949 258.592 136.949C259.16 136.949 259.721 137.044 260.275 137.233C260.829 137.422 261.333 137.73 261.788 138.156C262.242 138.578 262.605 139.136 262.874 139.832C263.144 140.528 263.279 141.385 263.279 142.403V143.114H254.87V141.665H261.575C261.575 141.049 261.452 140.5 261.205 140.017C260.964 139.534 260.618 139.153 260.169 138.874C259.723 138.594 259.198 138.455 258.592 138.455C257.924 138.455 257.347 138.62 256.859 138.952C256.376 139.278 256.004 139.705 255.744 140.23C255.483 140.756 255.353 141.319 255.353 141.92V142.886C255.353 143.71 255.495 144.409 255.779 144.982C256.068 145.55 256.468 145.983 256.98 146.281C257.491 146.575 258.085 146.722 258.762 146.722C259.203 146.722 259.6 146.66 259.955 146.537C260.315 146.409 260.625 146.22 260.886 145.969C261.146 145.713 261.347 145.396 261.49 145.017L263.109 145.472C262.938 146.021 262.652 146.504 262.249 146.92C261.847 147.332 261.35 147.654 260.758 147.886C260.166 148.114 259.501 148.227 258.762 148.227ZM269.948 148.227C269.039 148.227 268.237 147.998 267.541 147.538C266.845 147.074 266.3 146.421 265.907 145.578C265.514 144.731 265.318 143.729 265.318 142.574C265.318 141.428 265.514 140.434 265.907 139.591C266.3 138.748 266.847 138.097 267.548 137.638C268.249 137.179 269.058 136.949 269.977 136.949C270.687 136.949 271.248 137.067 271.66 137.304C272.077 137.536 272.394 137.801 272.612 138.099C272.834 138.393 273.007 138.634 273.13 138.824H273.272V133.455H274.948V148H273.329V146.324H273.13C273.007 146.523 272.832 146.774 272.605 147.077C272.377 147.375 272.053 147.643 271.632 147.879C271.21 148.111 270.649 148.227 269.948 148.227ZM270.176 146.722C270.848 146.722 271.416 146.546 271.88 146.196C272.344 145.841 272.697 145.351 272.938 144.726C273.18 144.096 273.301 143.369 273.301 142.545C273.301 141.731 273.182 141.018 272.945 140.408C272.709 139.792 272.358 139.314 271.894 138.973C271.43 138.627 270.857 138.455 270.176 138.455C269.465 138.455 268.874 138.637 268.4 139.001C267.931 139.361 267.579 139.851 267.342 140.472C267.11 141.087 266.994 141.778 266.994 142.545C266.994 143.322 267.112 144.027 267.349 144.662C267.59 145.292 267.945 145.794 268.414 146.168C268.888 146.537 269.475 146.722 270.176 146.722Z" fill="black"/>
</svg>
